<svg width="137" height="80" viewBox="0 0 137 80" fill="none" xmlns="http://www.w3.org/2000/svg">
<g clip-path="url(#clip0)">
<path fill-rule="evenodd" clip-rule="evenodd" d="M33.6903 15.2118C33.6427 15.2063 33.589 15.1948 33.538 15.1893L33.4761 15.1778C33.3891 15.1635 33.3041 15.1553 33.2144 15.1465C33.1525 15.1411 33.0906 15.1383 33.0315 15.1349C32.9247 15.1268 32.82 15.1234 32.7187 15.1234H32.5977C32.5107 15.1234 32.4257 15.1315 32.3468 15.1377L32.2109 15.1458C32.1424 15.1498 32.0743 15.1582 32.0069 15.171L31.9532 15.1764L31.8852 15.188L31.8118 15.1995L31.7159 15.2165C31.6683 15.2247 31.6255 15.2335 31.5833 15.2417C31.3285 15.2956 31.0784 15.3699 30.8355 15.464C30.7193 15.5072 30.6058 15.5571 30.4955 15.6136C30.4024 15.6585 30.3181 15.7067 30.2338 15.757C30.1494 15.8074 30.076 15.8475 29.9999 15.893C29.9577 15.927 29.9156 15.9522 29.8734 15.9834C29.8313 16.0147 29.8054 16.031 29.7694 16.0569C29.696 16.1133 29.6287 16.1724 29.5607 16.2289C29.4927 16.2853 29.4424 16.3356 29.3887 16.3893C29.3397 16.4367 29.2942 16.4876 29.2527 16.5416C29.2043 16.5915 29.1589 16.6442 29.1167 16.6994C29.0657 16.7585 29.0263 16.8149 28.9807 16.8768C28.944 16.9244 28.9127 16.97 28.8821 17.0175C28.8597 17.0543 28.8427 17.0794 28.823 17.1161C28.7001 17.3125 28.5963 17.5201 28.513 17.7362C28.4046 18.0195 28.33 18.3145 28.2906 18.6153C28.2791 18.7139 28.2682 18.8192 28.2594 18.9226C28.2539 18.9987 28.2539 19.083 28.2539 19.1592V19.3393C28.2594 19.4012 28.2682 19.4631 28.2736 19.5222L28.2791 19.5698C28.2877 19.6433 28.299 19.7137 28.3131 19.7813C28.3185 19.8091 28.3246 19.835 28.3301 19.8629C28.3416 19.922 28.3552 19.9784 28.3668 20.0376C28.3892 20.111 28.4089 20.1783 28.4348 20.2545C28.4627 20.3415 28.4967 20.4238 28.5279 20.5081C28.5844 20.6379 28.6462 20.7617 28.7081 20.88C28.7475 20.948 28.787 21.0159 28.8264 21.0839C28.8604 21.1315 28.8944 21.1825 28.925 21.2301C28.9667 21.2937 29.0121 21.3548 29.061 21.413C29.1085 21.4749 29.1595 21.534 29.2105 21.5904C29.2661 21.6576 29.3254 21.7216 29.388 21.7822L29.4193 21.8134C29.4702 21.861 29.5206 21.9147 29.5824 21.9657C29.6246 21.9997 29.6667 22.0337 29.715 22.0725C29.7633 22.1112 29.802 22.1405 29.851 22.1765C29.9101 22.2187 29.9666 22.2554 30.0311 22.3002C30.0957 22.3451 30.1719 22.3873 30.248 22.4301C30.4091 22.5204 30.5758 22.6003 30.7471 22.6694C30.8151 22.6973 30.883 22.7204 30.9558 22.7456C31.0285 22.7707 31.102 22.7966 31.1781 22.8136C31.3107 22.8475 31.4501 22.8815 31.5894 22.9121C31.705 22.9346 31.8288 22.9516 31.9559 22.9658C32.083 22.9801 32.2068 22.9937 32.336 22.9998C32.4039 23.0053 32.4719 23.0053 32.5331 23.0114H32.629C32.8683 23.0114 33.0886 22.9998 33.2912 22.9835H33.3333C33.4149 22.9781 33.4911 22.9665 33.5672 22.9556C33.6799 22.9452 33.7918 22.9282 33.9024 22.9047C33.9704 22.8931 34.0323 22.8795 34.0969 22.8679C34.1954 22.8455 34.2886 22.8204 34.3756 22.8C34.4436 22.783 34.5055 22.7632 34.5673 22.7435C34.6408 22.7211 34.7081 22.6987 34.7761 22.6755L34.844 22.6504C34.878 22.6388 34.9202 22.6225 34.9705 22.6028C35.0385 22.5749 35.1228 22.5436 35.2159 22.5042C35.2724 22.4763 35.3342 22.4532 35.3988 22.4253C35.4534 22.3935 35.5111 22.3671 35.5708 22.3465C35.5937 22.3306 35.6184 22.3174 35.6443 22.307V20.8582C35.627 20.8705 35.6091 20.8819 35.5906 20.8922L35.492 20.9514C35.3934 21.0105 35.2948 21.0669 35.2017 21.1234C35.0949 21.1798 34.9875 21.2301 34.8862 21.2838C34.7171 21.364 34.5439 21.4355 34.3674 21.498C34.0857 21.5975 33.7965 21.6748 33.5026 21.7291L33.4122 21.7461C33.3388 21.7577 33.2715 21.7631 33.2035 21.774L32.9275 21.791C32.871 21.791 32.8207 21.7992 32.7724 21.7992C32.6684 21.7992 32.561 21.791 32.4515 21.7849C32.3251 21.7733 32.1979 21.7625 32.0654 21.74C31.8519 21.7051 31.6424 21.6493 31.4399 21.5734C31.4072 21.5645 31.3759 21.5512 31.3467 21.534C31.3254 21.5286 31.3047 21.5211 31.2849 21.5116C31.2536 21.4973 31.2169 21.4837 31.1863 21.4694C31.1128 21.4327 31.0428 21.4014 30.9748 21.3593C30.9408 21.3396 30.9068 21.3198 30.8708 21.2974C30.8348 21.275 30.8028 21.2525 30.7695 21.2294C30.7362 21.2063 30.6852 21.1703 30.6458 21.139C30.6063 21.1077 30.5642 21.071 30.5302 21.0459L30.4826 21.001L30.4574 20.9785L30.4432 20.967L30.4262 20.95C30.3582 20.882 30.2997 20.8174 30.2433 20.7528C30.2154 20.7134 30.1868 20.6767 30.1562 20.64C30.1257 20.6033 30.1087 20.572 30.0883 20.5332C30.0623 20.5008 30.0396 20.466 30.0203 20.4292C29.9895 20.3784 29.9613 20.3277 29.936 20.2769C29.9162 20.2348 29.8965 20.1899 29.8795 20.147C29.8479 20.0756 29.8206 20.0022 29.7979 19.9274C29.781 19.8765 29.7667 19.8173 29.7504 19.767C29.7208 19.6311 29.6981 19.4938 29.6824 19.3557C29.6769 19.3081 29.6769 19.2652 29.6742 19.2258C29.6742 19.1694 29.6742 19.1191 29.6742 19.0762V18.9899C29.678 18.8861 29.6873 18.7826 29.7021 18.6799C29.7124 18.6011 29.7274 18.523 29.747 18.446C29.7585 18.3895 29.7748 18.3358 29.7918 18.2794C29.8088 18.223 29.8258 18.1754 29.8483 18.119C29.8613 18.0815 29.8763 18.0447 29.8931 18.0088C29.9128 17.9612 29.938 17.9157 29.9611 17.8654C29.9842 17.815 30.0006 17.7892 30.023 17.7498C30.0706 17.6682 30.127 17.5832 30.1862 17.5016C30.2086 17.4703 30.231 17.4425 30.2542 17.4146C30.2773 17.3867 30.3221 17.3412 30.3527 17.3045C30.3697 17.2875 30.3894 17.265 30.4064 17.2453C30.6586 16.9933 30.9535 16.7882 31.2774 16.6395C31.3284 16.6144 31.376 16.5974 31.4236 16.5777L31.5731 16.5212C31.6241 16.5042 31.6799 16.4872 31.7336 16.4702C31.7873 16.4532 31.8376 16.4424 31.8886 16.4281C31.9396 16.4138 31.9926 16.4084 32.0436 16.4002C32.0946 16.3921 32.1537 16.3805 32.2129 16.3689C32.2682 16.3622 32.3238 16.3583 32.3795 16.3574C32.4824 16.3462 32.5859 16.3406 32.6895 16.3404H32.7935C32.8697 16.3404 32.9397 16.3458 33.0131 16.3458C33.0612 16.3621 33.112 16.3688 33.1627 16.3655C33.2497 16.3771 33.3429 16.388 33.4245 16.4022C33.506 16.4165 33.574 16.4247 33.6386 16.4362C33.7426 16.4614 33.8385 16.4838 33.9289 16.5097C33.9797 16.5203 34.0296 16.5344 34.0785 16.5518C34.1465 16.5743 34.2084 16.594 34.2559 16.6055C34.3375 16.6395 34.3824 16.6531 34.3824 16.6531C34.4504 16.6783 34.5259 16.7123 34.5939 16.732C34.687 16.7741 34.774 16.8081 34.859 16.8476C34.927 16.8843 34.995 16.9156 35.0589 16.9407C35.1228 16.9659 35.1602 16.9971 35.2051 17.0169C35.2839 17.0617 35.3546 17.093 35.409 17.127L35.5586 17.2086V15.7727C35.5586 15.7727 35.4682 15.7387 35.3166 15.6795C35.2486 15.6571 35.1643 15.6258 35.0711 15.5952C35.0235 15.5755 34.9698 15.5585 34.9107 15.5361C34.8658 15.5245 34.8203 15.5048 34.7747 15.4912C34.7291 15.4776 34.6646 15.4518 34.6054 15.4348C34.5633 15.4232 34.5211 15.4069 34.4728 15.3926L34.4361 15.3811C34.394 15.3695 34.3491 15.3586 34.3097 15.3471C34.2559 15.3328 34.2029 15.3158 34.1492 15.2995L34.0418 15.2798C33.9853 15.2624 33.9279 15.2483 33.8698 15.2376C33.8094 15.233 33.7495 15.2244 33.6903 15.2118V15.2118ZM26.5413 13.7242H37.8954V24.4058H26.5413V13.7242Z" fill="white"/>
<path fill-rule="evenodd" clip-rule="evenodd" d="M17.781 19.6331V21.7346H19.1408C19.1408 21.7346 19.1687 21.7346 19.2088 21.7346C19.2489 21.7346 19.3216 21.7291 19.4032 21.723C19.5832 21.7077 19.7609 21.6719 19.9328 21.6163C20.1063 21.5638 20.2654 21.4721 20.3979 21.3484C20.4453 21.3001 20.4879 21.2473 20.525 21.1907C20.6051 21.0594 20.6518 20.9104 20.661 20.7569C20.661 20.7093 20.661 20.6889 20.661 20.6889V20.6359C20.66 20.5672 20.6516 20.4988 20.6358 20.4319C20.6038 20.3155 20.5493 20.2065 20.4754 20.111C20.4561 20.0936 20.4381 20.0747 20.4217 20.0546C20.3857 20.015 20.3464 19.9786 20.3041 19.9458C20.2247 19.8901 20.1397 19.8429 20.0505 19.8051C19.9197 19.7461 19.7812 19.7063 19.6391 19.6868C19.5603 19.6693 19.4803 19.658 19.3998 19.6528C19.3476 19.6442 19.2949 19.6385 19.2421 19.6358C19.1945 19.6358 19.1462 19.6358 19.0986 19.6358L17.781 19.6331Z" fill="white"/>
<path fill-rule="evenodd" clip-rule="evenodd" d="M17.781 16.4376V18.4263H18.5418C18.5894 18.4263 18.6404 18.4263 18.6914 18.4181C18.8633 18.4085 19.034 18.383 19.2013 18.342C19.2391 18.3322 19.276 18.319 19.3114 18.3025C19.4599 18.2528 19.5962 18.1721 19.7112 18.0659C19.7906 17.9897 19.8522 17.8968 19.8914 17.794C19.9304 17.6982 19.955 17.5972 19.9641 17.4941C19.9641 17.4262 19.9641 17.384 19.9641 17.384V17.297C19.9611 17.1701 19.9315 17.0452 19.8771 16.9305C19.8408 16.8604 19.7922 16.7973 19.7336 16.7442C19.6601 16.6709 19.5731 16.6125 19.4773 16.5722C19.2945 16.4937 19.0983 16.4508 18.8994 16.4458C18.8178 16.4403 18.7471 16.4342 18.688 16.4342L17.781 16.4376Z" fill="white"/>
<path fill-rule="evenodd" clip-rule="evenodd" d="M16.4002 15.226V22.921H19.2992C20.0942 22.9364 20.8697 22.6733 21.4911 22.1772C21.6734 22.0015 21.8192 21.7916 21.9202 21.5594C22.0211 21.3273 22.0752 21.0775 22.0794 20.8244C22.0836 20.5712 22.0377 20.3198 21.9445 20.0844C21.8512 19.8491 21.7124 19.6345 21.536 19.4529C21.218 19.1461 20.8262 18.9264 20.3986 18.8152C20.5855 18.7244 20.7574 18.6057 20.9085 18.463C21.0739 18.3021 21.2022 18.1071 21.2845 17.8915C21.3667 17.6759 21.4008 17.4449 21.3844 17.2147C21.3844 16.9746 21.3363 16.737 21.2428 16.5158C21.1494 16.2946 21.0126 16.0944 20.8405 15.927C20.5832 15.6829 20.2783 15.4947 19.9449 15.3741C19.6114 15.2534 19.2567 15.203 18.9028 15.226H16.4002ZM13.425 13.7242H24.7791V24.4058H13.425V13.7242Z" fill="white"/>
<path fill-rule="evenodd" clip-rule="evenodd" d="M4.69936 19.6331V21.7346H6.0632C6.0632 21.7346 6.08836 21.7346 6.13119 21.7346C6.17402 21.7346 6.24405 21.7291 6.32292 21.723C6.50387 21.7079 6.68249 21.6721 6.85527 21.6163C7.02866 21.5616 7.18742 21.4684 7.31963 21.3436C7.36766 21.2976 7.41031 21.2463 7.44677 21.1907C7.52766 21.0607 7.57443 20.9125 7.58274 20.7596C7.58571 20.7371 7.58752 20.7144 7.58818 20.6916V20.6359C7.58297 20.5672 7.57252 20.499 7.55691 20.4319C7.52723 20.3146 7.47249 20.2051 7.39646 20.111C7.38155 20.0914 7.36566 20.0726 7.34886 20.0546C7.30671 20.0179 7.26728 19.9784 7.22784 19.9478C7.02807 19.8115 6.79965 19.7229 6.5602 19.6888C6.48141 19.6714 6.4014 19.66 6.32088 19.6548C6.26891 19.6457 6.21648 19.6393 6.16383 19.6358C6.12167 19.6358 6.07068 19.6358 6.02309 19.6358L4.69936 19.6331Z" fill="white"/>
<path fill-rule="evenodd" clip-rule="evenodd" d="M4.69936 16.4376V18.4263H5.46015C5.50774 18.4263 5.56417 18.4263 5.61244 18.4181C5.78529 18.4085 5.95689 18.383 6.12507 18.342C6.16134 18.3308 6.19698 18.3176 6.23181 18.3025C6.37976 18.2534 6.51525 18.1727 6.62887 18.0659C6.70815 17.989 6.77045 17.8964 6.81175 17.794C6.84931 17.6985 6.87223 17.5978 6.87974 17.4955C6.88518 17.4275 6.88518 17.3854 6.88518 17.3854V17.297C6.87904 17.1705 6.84953 17.0463 6.79816 16.9305C6.76357 16.8613 6.71761 16.7983 6.66218 16.7442C6.58444 16.6706 6.49358 16.6123 6.39431 16.5722C6.21176 16.4928 6.01544 16.4498 5.8164 16.4458C5.74298 16.4403 5.67295 16.4342 5.61244 16.4342L4.69936 16.4376Z" fill="white"/>
<path fill-rule="evenodd" clip-rule="evenodd" d="M3.32463 15.226V22.921H6.22094C7.01517 22.9365 7.78974 22.6733 8.41016 22.1772C8.59304 22.0019 8.73942 21.7922 8.84086 21.5601C8.94231 21.3281 8.99682 21.0782 9.00124 20.8249C9.00567 20.5717 8.95992 20.3201 8.86664 20.0846C8.77336 19.8491 8.6344 19.6344 8.45775 19.4529C8.13955 19.146 7.74754 18.9263 7.31963 18.8152C7.50654 18.7244 7.6785 18.6057 7.82954 18.463C7.995 18.3021 8.12331 18.1071 8.20552 17.8915C8.28773 17.6759 8.32183 17.4449 8.30546 17.2147C8.30546 16.9746 8.25733 16.737 8.16391 16.5158C8.07049 16.2946 7.93367 16.0944 7.76155 15.927C7.50436 15.6827 7.19935 15.4943 6.86575 15.3736C6.53215 15.253 6.17718 15.2027 5.8232 15.226H3.32463ZM0.343338 13.7242H11.6974V24.4058H0.343338V13.7242Z" fill="white"/>
<path fill-rule="evenodd" clip-rule="evenodd" d="M0.343338 27.0492V35.8823H1.61132V32.0511H2.14095C2.79432 32.0511 3.31851 32.2551 4.48791 34.0711L5.65459 35.883H7.16733C6.55544 35.0433 6.33923 34.7421 5.96122 34.1302C5.49245 33.1817 4.82098 32.3478 3.99431 31.6874C4.43885 31.531 4.82183 31.2367 5.08745 30.8475C5.35307 30.4582 5.48745 29.9943 5.47102 29.5233C5.47102 27.9963 4.35805 27.0492 2.572 27.0492H0.343338ZM1.61132 28.137H2.42718C3.65573 28.137 4.14865 28.6442 4.16293 29.4696C4.17448 30.208 3.78559 30.9069 2.42718 30.9069H1.61132V28.137Z" fill="white"/>
<path fill-rule="evenodd" clip-rule="evenodd" d="M11.7824 26.9982H10.889L7.09662 35.8789H8.3884L9.50409 33.281H13.257L14.4394 35.8789H15.7311L11.7824 26.9982ZM11.3173 28.942L12.7403 32.1375H9.99292L11.3173 28.942Z" fill="white"/>
<path fill-rule="evenodd" clip-rule="evenodd" d="M16.7836 35.8823H20.2272C20.8275 35.9126 21.4277 35.8213 21.9918 35.6138C22.5559 35.4062 23.0721 35.0868 23.5096 34.6746C23.947 34.2624 24.2966 33.7661 24.5373 33.2153C24.778 32.6646 24.9049 32.0709 24.9103 31.4698C24.9103 29.3846 23.4764 27.0506 20.2136 27.0506H16.7836V35.8823ZM18.0516 28.1901H20.0015C22.4783 28.1901 23.6049 29.6858 23.6049 31.4671C23.6049 32.5549 22.9454 34.7414 20.0695 34.7414H18.0516V28.1901Z" fill="white"/>
<path fill-rule="evenodd" clip-rule="evenodd" d="M29.099 31.4671C29.0962 32.0781 29.2176 32.6833 29.4557 33.246C29.6938 33.8087 30.0437 34.3172 30.4842 34.7406C30.9247 35.164 31.4466 35.4936 32.0183 35.7092C32.59 35.9249 33.1995 36.0221 33.81 35.9952C34.4228 36.0261 35.0356 35.9324 35.6113 35.7196C36.1869 35.5068 36.7133 35.1795 37.1587 34.7573C37.6041 34.3352 37.9592 33.827 38.2026 33.2637C38.4459 32.7003 38.5723 32.0934 38.5742 31.4797C38.5762 30.866 38.4536 30.2584 38.2138 29.6935C37.974 29.1286 37.6221 28.6182 37.1794 28.1932C36.7367 27.7683 36.2123 27.4376 35.638 27.2212C35.0638 27.0048 34.4516 26.9072 33.8385 26.9343C33.2259 26.9047 32.6136 27.0001 32.039 27.2146C31.4643 27.4291 30.9394 27.7583 30.496 28.1821C30.0527 28.606 29.7002 29.1156 29.46 29.68C29.2198 30.2444 29.097 30.8517 29.099 31.4651V31.4671ZM30.4064 31.4651C30.3979 31.0153 30.4814 30.5685 30.6518 30.1521C30.8222 29.7357 31.0759 29.3585 31.3972 29.0437C31.7186 28.7289 32.1009 28.4831 32.5207 28.3213C32.9405 28.1596 33.389 28.0853 33.8385 28.1031C34.2892 28.084 34.739 28.1573 35.1603 28.3185C35.5816 28.4798 35.9654 28.7255 36.2882 29.0406C36.6109 29.3558 36.8658 29.7336 37.0371 30.1509C37.2084 30.5682 37.2924 31.0161 37.2842 31.4671C37.2911 31.9177 37.206 32.3651 37.0343 32.7817C36.8625 33.1984 36.6076 33.5757 36.2851 33.8905C35.9626 34.2053 35.5794 34.4511 35.1587 34.6129C34.7381 34.7746 34.2888 34.8489 33.8385 34.8312C33.3892 34.8475 32.9412 34.7721 32.5219 34.6097C32.1027 34.4473 31.7208 34.2012 31.3997 33.8865C31.0786 33.5718 30.825 33.1949 30.6542 32.779C30.4834 32.3631 30.3991 31.9167 30.4064 31.4671" fill="white"/>
<path d="M111.166 48.9095C111.201 49.1591 111.162 49.4134 111.055 49.6412C110.947 49.8691 110.775 50.0604 110.56 50.1918C110.28 50.3477 109.962 50.4257 109.642 50.4175C109.443 50.4266 109.244 50.3911 109.061 50.3136C108.878 50.2361 108.714 50.1185 108.582 49.9695C108.405 49.6401 108.334 49.2644 108.378 48.8932V43.2665H105.687V48.9605C105.687 50.4338 105.771 50.9723 106.239 51.6318C106.522 51.9613 106.879 52.2192 107.28 52.3846C107.682 52.55 108.117 52.6182 108.55 52.5836C109.146 52.5831 109.733 52.4412 110.264 52.1696C110.62 52.0105 110.93 51.7643 111.165 51.4537V52.3246H113.839V43.2699H111.163V48.9095H111.166Z" fill="white"/>
<path d="M119.471 46.4062C118.603 46.2485 118.025 46.1445 118.025 45.6257C118.025 45.3667 118.273 44.9526 119.313 44.9526C120.149 44.9936 120.948 45.3096 121.586 45.8514L123.234 44.3271C122.073 43.4424 120.652 42.9667 119.192 42.9742C116.662 42.9742 115.374 44.5209 115.374 46.0112C115.373 46.6443 115.617 47.2533 116.054 47.7109C116.481 48.0956 116.999 48.3643 117.559 48.4914C117.96 48.6076 118.367 48.7015 118.778 48.7729C119.307 48.8148 119.827 48.9315 120.322 49.1196C120.426 49.1605 120.515 49.2322 120.576 49.3249C120.638 49.4177 120.669 49.5271 120.666 49.6384C120.666 50.3149 119.697 50.5222 119.058 50.5222C118.048 50.4656 117.101 50.0167 116.418 49.2712L114.736 50.7983C115.309 51.3753 115.993 51.8289 116.748 52.1308C117.503 52.4327 118.312 52.5767 119.125 52.5537C121.26 52.5537 123.408 51.5142 123.408 49.3814C123.408 47.2234 121.289 46.7298 119.469 46.4062" fill="white"/>
<path d="M126.802 43.2502H124.162V52.3253H126.802V43.2502Z" fill="white"/>
<path d="M126.802 40.0602H124.162V42.1195H126.802V40.0602Z" fill="white"/>
<path d="M133.909 49.8797C133.74 50.0745 133.532 50.2308 133.299 50.3383C133.065 50.4457 132.811 50.5017 132.554 50.5025C131.131 50.5025 130.542 48.9979 130.542 47.7979C130.542 46.7047 131.027 45.0566 132.466 45.0566C132.825 45.0563 133.176 45.1654 133.471 45.3694C133.812 45.6068 134.077 45.9372 134.235 46.3212L136.215 45.194C135.826 44.5169 135.26 43.9577 134.579 43.5758C133.897 43.1939 133.125 43.0034 132.344 43.0245C129.327 43.0245 127.803 45.2416 127.803 47.885C127.803 51.5788 130.561 52.6244 132.294 52.6244C133.224 52.6241 134.133 52.3394 134.897 51.8086C135.479 51.3748 135.964 50.8238 136.32 50.1911L134.311 49.1516C134.227 49.4183 134.09 49.6655 133.908 49.8784" fill="white"/>
<path d="M99.1638 44.58C98.679 44.0756 98.5859 43.0387 96.7801 43.0387C96.2891 43.0165 95.7998 43.1118 95.353 43.3166C94.9061 43.5214 94.5146 43.8298 94.2108 44.2163V43.2815H91.5702V52.3239H94.2102V47.167C94.1565 46.8479 94.1838 46.5204 94.2896 46.2147C94.3955 45.9089 94.5765 45.6346 94.8159 45.417C95.0345 45.28 95.2874 45.2076 95.5454 45.2083C95.7431 45.2032 95.9394 45.2426 96.1198 45.3236C96.3002 45.4045 96.4601 45.525 96.5877 45.676C96.7939 46.0722 96.8837 46.5186 96.8467 46.9637V52.3226H99.484V47.392C99.484 46.4028 99.484 45.8847 99.9912 45.4884C100.241 45.3013 100.546 45.2024 100.859 45.2069C101.115 45.1972 101.367 45.2718 101.577 45.4192C101.786 45.5665 101.942 45.7786 102.019 46.0228C102.112 46.5328 102.147 47.0516 102.123 47.5695V52.3287H104.768V46.4198C104.832 45.7172 104.748 45.0092 104.523 44.3407C104.262 43.9117 103.889 43.563 103.443 43.3332C102.997 43.1035 102.496 43.0015 101.996 43.0387C100.063 43.0136 99.688 44.1463 99.1665 44.58" fill="white"/>
<path d="M77.1335 36.0468C78.3005 36.7212 79.2413 37.7264 79.8371 38.9354C80.4328 40.1444 80.6568 41.5029 80.4806 42.8391C80.3044 44.1754 79.736 45.4294 78.8472 46.4426C77.9584 47.4559 76.7892 48.1829 75.4873 48.5317C74.1854 48.8806 72.8094 48.8356 71.533 48.4025C70.2567 47.9694 69.1374 47.1676 68.3167 46.0985C67.496 45.0294 67.0107 43.7409 66.9221 42.396C66.8335 41.0511 67.1457 39.7102 67.8191 38.5427C68.2667 37.7671 68.8628 37.0874 69.5732 36.5422C70.2835 35.997 71.0944 35.5971 71.9593 35.3654C72.8243 35.1336 73.7264 35.0745 74.6142 35.1914C75.502 35.3083 76.3581 35.599 77.1335 36.0468V36.0468ZM74.1835 68.0014C78.9368 68.0105 83.6136 66.8054 87.7704 64.5002C91.9273 62.195 95.4264 58.8661 97.9359 54.8293C97.9359 54.8293 97.9359 54.8238 97.9414 54.8238C97.968 54.7808 97.9817 54.731 97.9808 54.6804C97.9808 54.6355 97.9692 54.5915 97.947 54.5525C97.9248 54.5135 97.8929 54.481 97.8543 54.4581C97.825 54.4388 97.7921 54.4255 97.7576 54.419C97.7231 54.4125 97.6876 54.413 97.6533 54.4203C97.6189 54.4276 97.5864 54.4417 97.5575 54.4618C97.5287 54.4818 97.5041 54.5073 97.4852 54.5369C92.862 61.8185 83.7155 66.5253 74.1842 66.5253C67.3507 66.5392 60.7757 63.9147 55.83 59.1991C50.8844 54.4835 47.9499 48.0408 47.6385 41.2145C47.327 34.3881 49.6627 27.705 54.1584 22.5587C58.6541 17.4123 64.9629 14.2 71.7692 13.5916L59.4762 34.8944C57.9511 37.9756 57.4642 41.4677 58.0882 44.8486C58.7123 48.2295 60.4138 51.3176 62.9384 53.6513C65.463 55.985 68.6751 57.439 72.0946 57.7958C75.514 58.1527 78.9571 57.3932 81.9091 55.631C84.8612 53.8688 87.1636 51.1985 88.4722 48.0193C89.7808 44.84 90.0253 41.3227 89.1692 37.993C88.3131 34.6633 86.4023 31.7001 83.7224 29.5464C81.0426 27.3926 77.7377 26.1641 74.3018 26.0444L81.0442 14.3551C92.5397 17.3466 101.528 27.6754 101.528 39.9228C101.531 39.9915 101.561 40.0561 101.611 40.1035C101.661 40.1508 101.727 40.1772 101.795 40.1772C101.864 40.1772 101.93 40.1508 101.98 40.1035C102.03 40.0561 102.059 39.9915 102.063 39.9228V39.7678C102.072 36.1094 101.356 32.4854 99.9567 29.1051C98.5574 25.7248 96.5024 22.6552 93.9103 20.0735C91.3182 17.4918 88.2404 15.4491 84.8546 14.0634C81.4687 12.6777 77.8419 11.9764 74.1835 12C70.4949 11.9818 66.839 12.6926 63.4259 14.0916C60.0129 15.4906 56.9098 17.5502 54.2951 20.152C51.6804 22.7539 49.6056 25.8467 48.1898 29.2529C46.774 32.659 46.0452 36.3113 46.0452 40C46.0452 43.6887 46.774 47.341 48.1898 50.7471C49.6056 54.1533 51.6804 57.2461 54.2951 59.8479C56.9098 62.4498 60.0129 64.5094 63.4259 65.9084C66.839 67.3073 70.4949 68.0182 74.1835 68" fill="white"/>
<path d="M27.814 27.0499H26.5563V35.8537H27.814V27.0499Z" fill="white"/>
</g>
<defs>
<clipPath id="clip0">
<rect width="136" height="80" fill="white" transform="translate(0.343338)"/>
</clipPath>
</defs>
</svg>
