<svg width="141" height="80" viewBox="0 0 141 80" fill="none" xmlns="http://www.w3.org/2000/svg">
<g clip-path="url(#clip0)">
<path d="M76.005 45.8333C76.005 50.1667 70.6717 50 70.6717 50H65.3383V42.1667H70.6717C76.1717 42 76.005 45.8333 76.005 45.8333ZM65.1717 30.1667H69.3383C73.6717 30.3333 73.505 33.5 73.505 33.5C73.505 37.5 68.8383 37.5 68.8383 37.5H65.3383V30.1667H65.1717ZM75.005 39.1667C77.1717 38.1667 78.6717 35.8333 78.6717 33.3333C78.6717 33.3333 79.1717 26.5 70.1717 25.6667H60.005V54.3333H71.505C71.505 54.3333 81.1717 54.3333 81.1717 46.1667C81.3383 46.3333 81.505 40.6667 75.005 39.1667ZM49.005 20H91.3383V60H48.8383V20H49.005Z" fill="white"/>
<path d="M27.1667 45.8333C27.1667 50.1667 21.8333 50 21.8333 50H16.3333V42.1667H21.6667C27.3333 42 27.1667 45.8333 27.1667 45.8333ZM16.3333 30.1667H20.5C24.8333 30.3333 24.6667 33.5 24.6667 33.5C24.6667 37.5 20 37.5 20 37.5H16.3333V30.1667ZM26.1667 39.1667C28.3333 38.1667 29.8333 35.8333 29.8333 33.3333C29.8333 33.3333 30.3333 26.5 21.3333 25.6667H11.1667V54.3333H22.6667C22.6667 54.3333 32.3333 54.3333 32.3333 46.1667C32.3333 46.3333 32.6667 40.6667 26.1667 39.1667ZM0 20H42.5V60H0V20Z" fill="white"/>
<path d="M131.677 27.6667V33C131.677 33 126.51 29.8333 120.843 29.6667C120.843 29.6667 110.177 29.5 109.677 39.8333C109.677 39.8333 109.343 49.5 120.677 50C120.677 50 125.51 50.5 132.01 46.5V52C126.177 55 119.343 55.5 113.177 53.1667C107.843 50.8333 104.343 45.6667 104.343 39.8333C104.343 39.8333 104.01 29.3333 115.343 25.8333C115.343 25.8333 118.343 24.6667 123.843 25.1667C126.51 25.8333 129.177 26.5 131.677 27.6667ZM97.8433 60H140.343V20H97.8433V60Z" fill="white"/>
</g>
<defs>
<clipPath id="clip0">
<rect width="140.343" height="80" fill="white"/>
</clipPath>
</defs>
</svg>
