<svg width="95" height="80" viewBox="0 0 95 80" fill="none" xmlns="http://www.w3.org/2000/svg">
<g clip-path="url(#clip0)">
<path d="M65.5753 49.5799C67.5578 55.3447 71.9682 57.9732 79.5362 57.9732C88.5756 57.9732 94.0609 54.1876 94.0609 47.972C94.0609 44.6364 92.4188 42.0393 89.312 40.4581C87.6158 39.5539 84.7926 38.9901 78.7476 38.3112C77.0514 38.1406 76.0889 37.5219 76.0889 36.6725C76.0889 35.8231 77.6146 35.2044 79.5944 35.2044C82.0791 35.2044 83.5499 35.9354 84.4549 37.6898L92.8155 36.1086C90.9521 31.3063 86.545 28.76 79.991 28.76C71.9688 28.76 66.7706 32.5464 66.7706 38.4235C66.7379 39.7965 67.0712 41.1535 67.7363 42.3551C68.4013 43.5567 69.3742 44.5597 70.5549 45.2611C73.0346 46.4921 75.712 47.2758 78.464 47.576C79.7722 47.6981 81.0732 47.8872 82.362 48.1425C83.7178 48.4228 84.3418 48.9311 84.3418 49.614C84.3418 50.6842 82.7005 51.3069 80.0479 51.3069C76.4849 51.3069 74.8489 50.4601 74.17 48.2549L65.5753 49.5799Z" fill="white"/>
<path d="M40.0227 35.0806C40.9451 31.2154 42.959 28.4965 47.2557 28.8249L48.7238 28.9312V38.6683C48.0482 38.4927 47.3537 38.4006 46.6557 38.3941C44.9167 38.3941 43.1228 38.7225 42.2547 40.3003C41.4935 41.6587 41.4935 43.4526 41.4935 45.0879L41.4842 57.3853H30.7158V29.37H40.0194V35.0799L40.0227 35.0806Z" fill="white"/>
<path d="M29.3952 57.4435H19.7484C19.4576 56.1641 19.3246 54.8539 19.3524 53.5421C17.2041 56.4978 14.6953 57.8709 10.9056 58H9.74509C4.29064 57.7993 0.634082 54.7073 0.422058 50.0708V49.2321C0.601309 45.5106 3.22317 42.3543 7.42286 40.9912C11.1168 39.8975 14.9376 39.2904 18.7886 39.1853V38.5011C18.7886 36.2939 17.8809 35.4492 15.451 35.4492C12.9629 35.4492 11.5488 36.4665 11.2086 38.5011L1.20394 37.5962C1.99586 34.5991 3.00984 33.0186 5.10533 31.5478C7.81884 29.6262 11.0989 28.7761 15.734 28.7761C20.652 28.7761 24.2704 29.7379 26.703 31.6635C28.9102 33.4145 29.3557 35.0532 29.3557 40.7638V51.959C29.3557 52.6653 29.3651 53.2472 29.3952 53.7649V57.4435ZM18.7873 45.627V44.3268C14.0384 44.8384 11.7764 46.3065 11.7764 48.7947C11.7764 50.3785 12.793 51.3363 14.5454 51.3363C17.5418 51.3363 18.7873 49.6976 18.7873 45.6257V45.627Z" fill="white"/>
<path d="M7.04145 25.7128C6.99263 26.3743 6.72779 26.6906 6.24957 26.6906C5.66165 26.6906 5.40881 26.2157 5.40881 25.0854C5.38706 24.6764 5.43963 24.267 5.56398 23.8768C5.60886 23.7251 5.69977 23.591 5.82415 23.4933C5.94853 23.3955 6.10024 23.3388 6.25826 23.331L6.89163 23.7698C6.98616 23.9833 7.02902 24.2161 7.01671 24.4493L8.68883 24.3517C8.66992 23.9409 8.56295 23.539 8.37515 23.1732C8.16955 22.7942 7.85925 22.4824 7.48128 22.2749C7.10331 22.0675 6.67362 21.9732 6.24352 22.0033C5.90084 21.9851 5.55809 22.0379 5.23683 22.1585C4.91556 22.2792 4.62276 22.465 4.3768 22.7043C3.8139 23.3631 3.52202 24.211 3.56014 25.0767C3.56014 26.8979 4.5955 28.0491 6.22548 28.0491C6.55881 28.0633 6.89146 28.0081 7.20234 27.8869C7.51321 27.7658 7.79554 27.5814 8.03137 27.3454C8.42813 26.9343 8.66203 26.3931 8.68953 25.8225L7.04145 25.7161V25.7128Z" fill="white"/>
<path d="M12.0027 22C11.6236 21.9773 11.2441 22.0369 10.8903 22.1748C10.5364 22.3126 10.2165 22.5255 9.95271 22.7986C9.40874 23.4134 9.12144 24.2135 9.15009 25.0339C9.15009 26.8304 10.2771 28.0437 11.9492 28.0437C13.6213 28.0437 14.7296 26.8137 14.7296 24.967C14.7296 23.1886 13.6394 22.0007 12.0007 22.0007L12.0027 22ZM11.9599 23.3277C12.5324 23.3277 12.7973 23.8213 12.7973 24.866C12.7938 25.1806 12.7715 25.4946 12.7304 25.8064C12.6422 26.4311 12.396 26.7141 11.9385 26.7141C11.3693 26.7141 11.0824 26.175 11.0824 25.0787C11.0824 23.9417 11.3934 23.3243 11.9573 23.3243L11.9599 23.3277Z" fill="white"/>
<path d="M21.6586 22.0883H19.2922L18.4789 25.2038L17.6295 22.0883H15.2785V27.9601H16.6229V23.7577L17.7499 27.9601H18.8969L19.9872 23.7577V27.9601H21.6593V22.0883H21.6586Z" fill="white"/>
<path d="M24.339 25.8251H25.3557C26.6506 25.8251 27.506 25.082 27.506 23.9524C27.5078 23.6853 27.4502 23.4211 27.3376 23.1789C27.2249 22.9367 27.06 22.7225 26.8546 22.5518C26.3155 22.1849 25.6638 22.0209 25.0152 22.0889H22.5178V27.9607H24.339V25.8258V25.8251ZM24.3177 24.571V23.434H24.9691C25.4627 23.434 25.7095 23.6166 25.7095 23.9798C25.7095 24.3844 25.4634 24.5704 24.9176 24.5704L24.3177 24.571Z" fill="white"/>
<path d="M32.8934 22.0883H31.4788V25.5262C31.4788 26.1281 31.4701 26.1776 31.3905 26.3214C31.3084 26.4366 31.198 26.5288 31.07 26.589C30.9419 26.6492 30.8006 26.6754 30.6595 26.6652L30.0622 26.4338C29.9465 26.3214 29.9104 26.1629 29.9104 25.8553V22.0883H28.0798V26.0659C28.0588 26.3217 28.0943 26.5789 28.1838 26.8194C28.2732 27.0599 28.4145 27.2779 28.5974 27.4578C29.152 27.8812 29.8408 28.09 30.5371 28.0457C31.2066 28.0905 31.8674 27.8732 32.3797 27.4397C32.567 27.2475 32.7103 27.017 32.7997 26.7639C32.8891 26.5109 32.9224 26.2415 32.8974 25.9743V22.0883H32.8934Z" fill="white"/>
<path d="M36.4158 23.4922H37.6278V22.0876H33.4916V23.4922H34.7036V27.9601H36.4152V23.4922H36.4158Z" fill="white"/>
<path d="M42.6907 26.5588H40.0534V25.5997H42.1884V24.2961H40.0534V23.4407H42.6907V22.0883H38.2809V27.9601H42.6907V26.5588Z" fill="white"/>
<path d="M48.6842 27.9601L47.6308 25.4044C47.9473 25.2975 48.2201 25.0898 48.4075 24.8132C48.595 24.5367 48.6868 24.2064 48.6689 23.8728C48.6689 22.7551 47.8662 22.0883 46.5399 22.0883H43.4673V27.9601H45.2731V25.7268H45.8363L46.6978 27.9621L48.6842 27.9601ZM45.2731 24.464V23.337H46.1012C46.5426 23.337 46.7954 23.547 46.7954 23.9002C46.7954 24.2533 46.5212 24.464 46.0403 24.464H45.2731Z" fill="white"/>
<path d="M65.4739 57.1037V57.1312L65.4491 57.1372L65.4739 57.1044V57.1037ZM50.176 27.0304L50.2823 25.4178L59.1513 22.095H59.2763L59.3037 22.0863L59.3158 27.0311L59.3305 30.8315H65.4765V38.78H60.0743V46.3413C60.0743 46.9105 60.0589 47.4429 60.089 47.9118C60.0676 47.9118 59.7546 50.4802 62.349 50.1304C64.8237 49.7926 65.4036 49.6735 65.4765 49.6622V56.9526C62.8407 57.5313 60.1528 57.8401 57.4544 57.8743C55.4144 57.7071 53.343 57.196 51.8816 55.6196C49.7767 53.3529 50.0543 50.2521 50.0543 47.2884V28.8376L50.1793 27.0317L50.176 27.0304Z" fill="white"/>
</g>
<defs>
<clipPath id="clip0">
<rect width="93.6385" height="80" fill="white" transform="translate(0.421326)"/>
</clipPath>
</defs>
</svg>
