<svg width="69" height="96" viewBox="0 0 69 96" fill="none" xmlns="http://www.w3.org/2000/svg">
<g clip-path="url(#clip0)">
<path fill-rule="evenodd" clip-rule="evenodd" d="M34.2593 94.6353C10.592 94.683 4.2077 69.5184 4.16698 47.961C4.15398 40.8558 2.95392 1.18537 33.9742 1.12472C64.9945 1.06406 64.1436 40.9398 64.1584 48.0468C64.1982 69.6042 57.9196 94.5894 34.2584 94.6353H34.2593Z" fill="white"/>
<path fill-rule="evenodd" clip-rule="evenodd" d="M49.8639 37.1039C47.0833 32.6762 43.185 27.4452 42.7491 22.0617C42.4753 18.6824 42.6738 14.9088 40.401 12.1196C39.7013 11.2796 38.8442 10.5847 37.8778 10.0738C36.827 9.53849 35.668 9.25014 34.4889 9.23071C33.4283 9.23417 32.3739 9.39268 31.3592 9.70122C30.1775 10.1135 28.9661 10.4351 27.7355 10.663C26.4032 10.8596 25.0456 10.7978 23.7367 10.4811C22.8996 10.2939 22.6717 10.2211 21.8304 10.0435C21.372 9.94556 20.1104 9.58249 19.7179 9.97588C18.7777 10.9152 20.7819 12.0598 21.3763 12.4887C22.4522 13.2115 23.4877 13.9925 24.4783 14.8282C26.2047 16.2013 27.4464 18.0908 28.0214 20.2204C28.1593 20.8502 28.2276 21.4932 28.2251 22.1379C28.3472 31.5697 12.6092 40.8281 12.8275 57.5288C12.9038 63.4339 16.0578 64.4096 16.0162 61.1282C15.966 57.2385 17.3463 53.0404 18.7769 49.4349C19.1079 48.6005 20.1632 48.3518 19.9284 49.791C19.067 53.969 18.6563 58.2273 18.7032 62.4929C18.7136 64.0534 18.8265 65.6115 19.0411 67.1572C19.2201 68.4012 19.4918 69.6302 19.8539 70.8337C20.1533 71.8444 20.5518 72.8231 21.0436 73.7555C21.4301 74.4919 21.8925 75.186 22.4231 75.8264C22.943 76.4155 23.5239 76.9479 24.156 77.4147C24.5645 77.6568 24.8975 78.0078 25.1178 78.4285C25.3778 79.1061 24.5113 79.3816 24.0555 79.5879C23.5547 79.8131 23.1136 80.0635 22.637 80.2949C21.9554 80.6282 21.2836 80.9792 20.6216 81.3477C20.2118 81.5773 19.7551 81.7159 19.3643 81.9802C18.9735 82.2445 18.7786 82.6561 19.3817 82.7548C19.6686 82.7699 19.9564 82.7553 20.2403 82.7115C20.721 82.6425 21.2108 82.6738 21.6787 82.8034C22.2983 83.0443 22.2653 83.6361 22.2913 84.2123C22.3199 84.837 22.7523 85.0346 23.2982 84.8847C23.8995 84.6436 24.4402 84.2726 24.8813 83.7981C25.2376 83.4756 25.6315 83.1971 26.0545 82.9689C26.9454 82.6553 27.9016 82.5745 28.8325 82.7341C29.3376 82.7601 30.0559 82.9723 30.4666 82.5608C30.8774 82.1492 30.5871 81.4135 30.4008 80.9552C30.2214 80.5107 30.0074 80.0887 29.7942 79.6554C29.6955 79.4596 29.5534 79.288 29.465 79.087C29.1071 78.2647 31.9778 77.6417 32.3894 77.5274C33.7888 77.1285 35.2206 76.8531 36.6681 76.7042C38.0647 76.5133 39.4865 76.654 40.8186 77.1149C41.3585 77.3539 41.8285 77.7267 42.1842 78.198C42.3921 78.458 42.8661 79.2248 42.4441 79.5376C41.7847 80.0176 41.1028 80.4405 40.4581 80.9448C40.0466 81.2555 39.6645 81.6036 39.317 81.9846C39.057 82.2792 38.9877 82.7913 39.5137 82.7644C40.2069 82.7332 40.9 82.6916 41.5932 82.6873C42.1009 82.6584 42.6057 82.7808 43.0437 83.0391C43.7274 83.5035 43.8747 84.4922 44.639 84.8726C44.8624 84.9727 45.1152 84.9856 45.3477 84.909C45.8529 84.7565 46.0843 84.2314 46.3537 83.8284C46.5724 83.4421 46.8821 83.1149 47.2558 82.8753C47.5058 82.7447 47.7847 82.6788 48.0668 82.6838C48.5769 82.6777 49.0869 82.7009 49.5944 82.7532C49.9938 82.7991 50.5423 82.9836 50.8941 82.7115C51.5683 82.1916 49.8006 81.0358 49.4489 80.8157C48.6378 80.3036 47.4862 79.7811 47.2341 78.7439C46.9403 77.5308 47.5426 76.2631 48.0503 75.1913C48.672 74.0986 49.236 72.9741 49.74 71.8224C50.1322 70.7234 50.4143 69.5883 50.5822 68.4336C51.4695 62.1134 50.0034 55.3955 48.156 49.3647C47.9351 48.6412 47.6509 47.9281 47.4429 47.1985C47.1223 46.0617 48.2227 45.7896 48.7886 46.903C49.3293 47.9679 52.8611 54.763 53.9009 59.8181C54.5551 63.0353 56.9778 63.1644 56.9093 57.4482C56.814 49.1723 53.686 43.1806 49.8639 37.0927V37.1039Z" fill="#161615"/>
<path fill-rule="evenodd" clip-rule="evenodd" d="M34.0816 -1.35643e-05C1.42972 0.0658396 0.0459588 40.7934 0.0598227 48.273C0.102281 70.9637 9.34859 96.0511 34.261 95.9991C59.1734 95.9471 68.314 70.6743 68.2698 47.9844C68.2568 40.504 66.7335 -0.0650002 34.0816 -1.35643e-05V-1.35643e-05ZM34.2601 94.6353C10.5928 94.6829 4.20854 69.5184 4.16782 47.961C4.15482 40.8558 2.95475 1.18535 33.9751 1.12469C64.9954 1.06404 64.1445 40.9398 64.1592 48.0468C64.1991 69.6041 57.9205 94.5894 34.2593 94.6353H34.2601Z" fill="#161615"/>
<path fill-rule="evenodd" clip-rule="evenodd" d="M46.9447 62.0328C47.378 66.2032 47.8372 73.3968 42.7501 73.6386C41.3992 73.7036 39.7278 72.7591 37.2297 72.9307C32.9882 73.2192 31.7283 74.8369 28.2641 74.2191C27.3168 74.077 26.4234 73.6889 25.673 73.0937C24.9225 72.4985 24.3412 71.7168 23.9871 70.8268C23.0418 68.6432 22.9542 66.1659 22.8078 63.8247C22.6449 61.1989 22.6432 58.5657 22.8026 55.9397C22.9179 54.0447 23.1189 52.154 23.3685 50.2711C23.7818 47.1439 24.4455 44.0584 25.1595 40.9876C25.7024 38.2589 26.5223 35.5928 27.6064 33.0306C28.3893 31.0941 29.8037 29.4791 31.62 28.4477C32.7047 27.926 33.8908 27.6493 35.0943 27.6373C36.2978 27.6254 37.4892 27.8783 38.584 28.3784C43.1617 30.7274 43.0464 36.1898 43.1937 40.6366C43.3277 44.0932 43.7141 47.5354 44.3496 50.9357C45.0333 54.6746 46.5531 58.2367 46.9491 62.0337L46.9447 62.0328Z" fill="white"/>
<path fill-rule="evenodd" clip-rule="evenodd" d="M39.538 16.2051C40.4738 17.3038 40.4209 21.8373 38.8873 23.4091C37.987 24.331 36.4672 24.4488 35.2671 24.6221C33.9441 24.8238 32.6323 25.0928 31.3367 25.428C30.0959 25.733 30.1764 24.4159 31.3783 23.474C33.1684 22.0703 37.6655 21.4395 38.7434 16.2086C38.7841 16.0084 39.0033 15.5829 39.538 16.2086V16.2051Z" fill="white"/>
<path fill-rule="evenodd" clip-rule="evenodd" d="M33.0184 17.3921C33.5067 17.8289 34.117 18.1057 34.7673 18.1851C35.4175 18.2645 36.0765 18.1429 36.6555 17.8364C37.2345 17.53 37.7058 17.0536 38.0059 16.4713C38.3059 15.8889 38.4204 15.2286 38.3339 14.5793C38.2474 13.9299 37.964 13.3227 37.5219 12.8392C37.0798 12.3558 36.5003 12.0194 35.8612 11.8753C35.2222 11.7312 34.5543 11.7863 33.9475 12.0332C33.3407 12.2801 32.8242 12.707 32.4673 13.2564C31.9967 13.8797 31.7906 14.6633 31.8938 15.4374C31.9969 16.2116 32.401 16.9139 33.0184 17.3921V17.3921Z" fill="white"/>
<path fill-rule="evenodd" clip-rule="evenodd" d="M34.2005 14.5388C34.3708 14.3801 34.5825 14.2726 34.8112 14.2289C35.04 14.1852 35.2764 14.2069 35.4933 14.2917C35.7102 14.3764 35.8988 14.5206 36.0373 14.7078C36.1758 14.895 36.2587 15.1175 36.2763 15.3497C36.294 15.5819 36.2457 15.8143 36.137 16.0203C36.0284 16.2262 35.8638 16.3973 35.6622 16.5139C35.4606 16.6304 35.2302 16.6877 34.9975 16.679C34.7648 16.6704 34.5392 16.5962 34.3468 16.465C34.0767 16.2261 33.9103 15.8913 33.8829 15.5316C33.8556 15.172 33.9695 14.8159 34.2005 14.5388V14.5388Z" fill="#161615"/>
</g>
<defs>
<clipPath id="clip0">
<rect width="68.21" height="96" fill="white" transform="translate(0.059845)"/>
</clipPath>
</defs>
</svg>
