<svg width="81" height="80" viewBox="0 0 81 80" fill="none" xmlns="http://www.w3.org/2000/svg">
<g clip-path="url(#clip0)">
<path d="M22.425 37.238C21.208 37.238 20.0976 36.6296 19.9303 35.4126C19.9303 35.4126 19.9303 35.3518 19.9303 35.3062C19.9303 35.078 20.0976 34.9259 20.3714 34.9259C20.5996 34.9259 20.7517 35.0932 20.8125 35.367C21.0407 36.2036 21.5883 36.4775 22.4706 36.4775C23.1855 36.4775 24.0222 36.1428 24.0222 35.3214C24.0222 34.7129 23.581 34.4391 22.9726 34.3326C21.8165 34.1653 20.0976 34.1044 20.0976 32.4464C20.0976 31.2295 21.3145 30.5601 22.425 30.5601C23.2008 30.5601 23.9766 30.7883 24.4177 31.4424C24.5242 31.6097 24.6459 31.8835 24.6459 32.1117C24.6459 32.3399 24.4785 32.5529 24.2656 32.5529C24.0374 32.5529 23.8853 32.3855 23.8244 32.1726C23.5963 31.5033 23.1095 31.2903 22.4402 31.2903C21.7252 31.2903 20.9951 31.6706 20.9951 32.4464C20.9951 33.1157 21.6644 33.3287 22.212 33.3895C23.2616 33.5568 24.9197 33.6177 24.9197 35.2149C24.8588 36.6904 23.7027 37.238 22.425 37.238ZM30.837 37.0859H27.247C26.9732 37.0859 26.8668 36.9186 26.8668 36.6448V31.2295C26.8668 30.9556 26.9732 30.7883 27.247 30.7883H30.837C31.1108 30.7883 31.2781 30.8948 31.2781 31.1686C31.2781 31.4424 31.1716 31.5489 30.837 31.5489H27.6882V33.3134H29.9547C30.2285 33.3134 30.3958 33.3743 30.3958 33.6481C30.3958 33.9219 30.2894 33.9828 29.9547 33.9828H27.6882V36.3101H30.837C31.1108 36.3101 31.2781 36.4166 31.2781 36.6904C31.2325 36.9642 31.126 37.0859 30.837 37.0859ZM35.5982 37.238C33.712 37.238 32.6167 35.7473 32.6167 33.9828C32.6167 32.2182 33.7728 30.6666 35.6591 30.6666C36.3284 30.6666 37.2715 31.0013 37.7126 31.5033C37.7735 31.5641 37.8191 31.6706 37.8191 31.7771C37.8191 32.0052 37.6518 32.1574 37.4844 32.1574C37.378 32.1574 37.2106 32.0509 37.1042 31.99C36.663 31.6554 36.2219 31.3816 35.6591 31.3816C34.214 31.3816 33.6055 32.5985 33.6055 33.9219C33.6055 35.2453 34.2748 36.4622 35.7047 36.4622C36.3132 36.4622 36.8608 36.1884 37.3628 35.8538C37.5301 35.7473 37.6366 35.6865 37.743 35.6865C37.9104 35.6865 38.0777 35.8538 38.0777 36.0211C38.0321 36.6904 36.3284 37.238 35.5982 37.238ZM42.413 37.238C40.5876 37.238 39.538 35.6408 39.538 33.9828C39.538 32.2638 40.5268 30.7275 42.413 30.7275C44.2992 30.7275 45.288 32.3247 45.288 33.9828C45.288 35.6408 44.284 37.238 42.413 37.238ZM42.413 31.3816C40.9679 31.3816 40.4811 32.705 40.4811 33.9219C40.4811 35.1388 40.9223 36.4622 42.413 36.4622C43.8581 36.4622 44.2992 35.1388 44.2992 33.9219C44.3449 32.705 43.8429 31.3816 42.413 31.3816ZM51.2053 37.1924C50.9315 37.1924 50.825 37.0859 50.6577 36.8121L47.8283 31.7771V36.7513C47.8283 37.0251 47.7675 37.1924 47.448 37.1924C47.1134 37.1924 47.0678 37.0251 47.0678 36.7513V31.0013C47.0678 30.6666 47.2959 30.621 47.5697 30.621C47.9044 30.621 47.95 30.6818 48.1174 30.9556L50.7794 35.7625V31.0621C50.7794 30.7883 50.7794 30.621 51.114 30.621C51.4943 30.621 51.4943 30.7883 51.4943 31.123V36.873C51.6008 37.1316 51.4335 37.1924 51.2053 37.1924ZM55.4645 37.0859H54.2476C54.0194 37.0859 53.8673 36.9186 53.8673 36.6448V31.2295C53.8673 30.9556 53.9738 30.7883 54.2476 30.7883H55.8601C57.7463 30.7883 58.735 32.1117 58.735 33.9371C58.735 36.082 57.5181 37.0859 55.4645 37.0859ZM55.2972 31.6097H54.6888V36.3558H55.3581C57.077 36.3558 57.8528 35.6865 57.8528 33.9828C57.8528 32.2182 57.0161 31.6097 55.2972 31.6097ZM30.7913 46.2585C30.3502 46.2585 30.3502 46.0304 30.3502 45.7109V43.2162H27.8099V45.7109C27.8099 46.0456 27.8099 46.2585 27.4296 46.2585C26.9884 46.2585 26.9884 46.0304 26.9884 45.7109V40.2956C26.9884 39.9609 26.9884 39.748 27.3687 39.748C27.8099 39.748 27.8099 39.9761 27.8099 40.2956V42.5013H30.3502V40.2956C30.3502 39.9609 30.3502 39.748 30.7305 39.748C31.1716 39.748 31.1716 39.9761 31.1716 40.2956V45.7109C31.1716 46.0304 31.1716 46.2585 30.7913 46.2585ZM35.872 46.2585C34.0466 46.2585 32.997 44.6613 32.997 43.0032C32.997 41.2843 33.9858 39.748 35.872 39.748C37.7583 39.748 38.747 41.3452 38.747 43.0032C38.7014 44.7069 37.6974 46.2585 35.872 46.2585ZM35.872 40.4477C34.4269 40.4477 33.9401 41.7711 33.9401 42.988C33.9401 44.205 34.3813 45.5284 35.872 45.5284C37.3171 45.5284 37.7583 44.205 37.7583 42.988C37.7583 41.7711 37.3171 40.4477 35.872 40.4477ZM45.0598 46.2585C44.8316 46.2585 44.6795 46.0912 44.6795 45.8782L44.5122 40.6759L43.4626 43.8855C43.3561 44.1593 43.2344 44.2658 42.9606 44.2658C42.6868 44.2658 42.5195 44.1593 42.413 43.8855L41.3634 40.6759L41.2569 45.8782C41.2569 46.1064 41.0896 46.2585 40.8766 46.2585C40.6637 46.2585 40.4963 46.0912 40.4963 45.8782L40.6637 40.1282C40.6637 39.7936 40.9983 39.748 41.2113 39.748C41.4851 39.748 41.7133 39.8544 41.8198 40.1282L42.9758 43.6117L44.1319 40.1282C44.2384 39.8544 44.4057 39.748 44.6795 39.748C44.9533 39.748 45.2271 39.8088 45.288 40.1282L45.4553 45.8782C45.4553 46.0912 45.288 46.2585 45.0598 46.2585ZM51.6008 46.0912H48.0109C47.7371 46.0912 47.6306 45.9239 47.6306 45.6501V40.2347C47.6306 39.9609 47.7371 39.7936 48.0109 39.7936H51.6008C51.8746 39.7936 52.0419 39.9001 52.0419 40.1739C52.0419 40.4477 51.9355 40.5542 51.6008 40.5542H48.452V42.3187H50.7185C50.9923 42.3187 51.1597 42.3796 51.1597 42.6534C51.1597 42.9272 51.0532 42.988 50.7185 42.988H48.452V45.3154H51.6008C51.8746 45.3154 52.0419 45.4219 52.0419 45.6957C52.0419 46.0304 51.8746 46.0912 51.6008 46.0912Z" fill="white"/>
<path d="M80.0921 33.1614C80.0921 32.994 80.0921 32.7811 80.0921 32.6137C80.0313 30.1799 79.7118 27.6395 79.2555 25.3122C79.0273 24.2017 78.7079 23.1065 78.2667 22.1634C78.2059 22.0569 78.0386 21.6614 77.8256 21.1746C76.6695 18.5278 75.9394 16.8697 75.8329 16.6415C74.3878 14.1468 72.4559 11.9411 70.5697 9.94841C68.6834 7.91005 66.2496 6.02381 62.8726 3.98545C60.7125 2.66204 58.9936 1.88624 56.6814 1.21693C55.8448 0.943121 51.3726 0.228174 48.2086 0.0608456C47.5393 -9.29351e-07 46.8243 0 46.0485 0C42.8997 0 39.6292 0.273809 38.6253 0.608465C37.6821 0.943121 36.6934 1.21693 35.7503 1.44511C34.366 1.77976 32.9209 2.11442 31.704 2.76852C31.6431 2.76852 31.5975 2.82936 31.5366 2.875C27.7185 3.31614 22.4553 4.25926 20.6908 4.9742C18.8654 5.68915 14.2715 7.62103 11.6094 10.1157C10.286 11.3327 7.18284 15.3181 6.7417 16.0331C6.30056 16.748 4.30784 20.6726 4.20136 20.8399L1.15904 28.7956L0.109436 35.6561V35.7169C0.109436 35.8234 1.66102 45.6653 2.33033 48.7685C3.04528 51.9782 11.7311 60.2685 12.0658 60.6032L12.1266 60.664L17.8766 64.041C18.8197 64.9233 19.702 65.699 19.8085 65.7599L28.0532 71.6772L28.5552 71.9054C30.0459 72.5747 33.2099 73.8981 34.3052 74.2784C35.5829 74.7195 43.8276 76.1038 46.9156 76.1038C47.1438 76.1038 47.2959 76.1038 47.4632 76.1038C49.6841 75.9365 52.118 75.2672 54.491 74.6131C54.993 74.4457 55.4797 74.3393 55.9817 74.1719C58.2026 73.5635 59.739 72.6812 61.7317 71.6316C62.2337 71.3578 62.7205 71.084 63.2224 70.7949C66.0518 69.3042 70.9652 63.8889 71.1933 63.6607L71.2542 63.5998V63.539C71.8018 62.4285 74.5703 57.0132 74.7376 56.2983C74.8441 55.7963 75.1179 54.7467 75.4526 53.5906C76.0002 51.6587 76.6087 49.4378 76.7304 48.6164C76.8368 47.9014 76.8977 47.1865 76.8977 46.4107C77.2323 45.6957 77.567 44.9808 77.8408 44.3115C77.9017 44.1442 78.0081 43.9312 78.1146 43.7639C78.3428 43.3227 78.5558 42.8816 78.6622 42.4405C78.7687 42.0602 78.8296 41.6647 78.8904 41.2844C78.9513 41.0562 78.9513 40.7824 78.9969 40.5694C79.1034 40.0218 79.2707 39.5198 79.3772 38.9722C79.651 37.8618 79.9856 36.7057 80.0465 35.4279C80.153 34.6521 80.0921 33.8763 80.0921 33.1614ZM76.1067 46.1369C75.6047 47.1865 75.1179 48.2969 74.6616 49.3465L74.5551 49.5747C74.0075 50.7308 73.5055 51.7804 72.7906 52.6627C71.9539 53.7123 71.1325 54.701 70.4175 55.5985C67.4361 59.1428 63.6179 61.957 58.4156 64.5582C56.0426 65.7143 49.7297 66.8856 49.0604 66.992C48.6193 66.9312 45.6834 66.5509 42.7476 66.1098C42.9758 66.0489 43.1887 65.9424 43.4169 65.8816C44.6338 65.3796 46.0789 64.5582 47.4024 63.7824C47.95 63.4477 48.3911 63.1739 48.8931 62.9001C51.9354 61.1812 52.6504 60.5271 54.8713 58.5344L55.3732 58.0932C55.7079 57.7586 56.0426 57.4239 56.362 57.1045C56.6358 56.8307 56.864 56.6025 57.1378 56.3287C57.3051 56.2222 57.4116 56.0549 57.5789 55.9484C57.7463 55.8419 57.9136 55.6746 58.0809 55.5073C58.3547 55.2334 58.5221 54.9596 58.7502 54.6706C58.8111 54.6098 58.8567 54.5033 58.9176 54.4424C59.8607 53.119 60.7429 51.7956 61.6861 50.1375C61.8534 49.8637 62.0207 49.6356 62.1881 49.3618C62.4619 48.9206 62.7357 48.4186 63.0247 47.9319C63.4658 47.1561 64.1808 45.6045 64.2416 45.5588V45.498V45.4372C64.3025 45.209 65.565 39.6872 65.6867 38.4246C66.067 34.5608 63.9678 26.7573 63.8613 26.4226C63.8005 26.1488 62.0968 20.0641 60.4235 17.6303C60.2562 17.4021 60.0889 17.1283 59.9215 16.8545C59.5412 16.246 58.9784 15.4702 58.3699 14.6488C59.9824 15.3638 61.5796 16.2004 63.0247 17.1891C64.5154 18.1323 65.7932 19.2275 67.0101 20.3988C68.2271 21.6157 70.6609 25.1448 70.8891 25.5403C71.0564 25.9206 72.7753 29.6931 73.323 30.9557C74.8745 34.7738 75.8177 39.5198 75.8633 39.8545C76.0002 39.9458 76.2284 42.9881 76.1067 46.1369ZM59.2826 17.1739C59.5108 17.4477 59.6629 17.7216 59.8303 17.9497C61.4427 20.2771 63.1008 26.4074 63.1464 26.5139C63.1464 26.5747 65.3064 34.5304 64.9718 38.2268C64.8653 39.3829 63.6484 44.5853 63.5267 45.1329C63.4202 45.4067 62.7509 46.7301 62.3706 47.4603C62.0968 47.9623 61.823 48.4034 61.534 48.8446C61.3666 49.1184 61.1993 49.3922 61.032 49.6812C60.0889 51.2784 59.2066 52.6627 58.2635 53.9405C58.2026 54.0013 58.157 54.1078 58.0961 54.1686C57.9288 54.4424 57.7158 54.6706 57.5485 54.8836C57.442 54.9901 57.2747 55.1574 57.1074 55.2639C56.94 55.3703 56.7727 55.5377 56.6054 55.705C56.3316 55.9788 56.0578 56.2526 55.8296 56.4808C55.4949 56.8155 55.1603 57.1501 54.8408 57.4239L54.3389 57.8651C52.2092 59.7969 51.4791 60.4662 48.5584 62.17C48.0565 62.4438 47.5697 62.7176 47.0069 63.0522C45.6834 63.828 44.2992 64.6494 43.1279 65.0906C42.4129 65.3644 41.6828 65.5926 40.907 65.8055C39.3554 65.5774 38.032 65.3644 37.1954 65.1971C35.9784 64.9233 34.8224 64.3604 33.6511 63.8128L33.4837 63.7063C31.1107 62.4894 28.8898 61.1051 27.0644 59.6144C22.5466 55.9332 19.6564 52.9365 18.4394 50.7308C17.2225 48.5707 15.2298 41.4973 15.1233 41.1627C15.0625 40.9345 14.3475 37.5119 14.1802 36.082C13.9064 33.4808 14.0129 30.4993 14.4084 27.7917C15.0777 26.5139 16.1729 24.7037 16.3402 24.369L22.4857 18.8928C22.7595 18.6647 27.4143 15.3029 31.0651 14.0251C34.0009 12.9755 36.7694 12.3671 39.0968 11.9868C40.4202 11.7586 41.7589 11.5456 43.0823 11.4848C43.9645 11.4848 44.9077 11.5456 45.8508 11.5913C46.2311 11.5913 46.6874 11.6521 47.1286 11.6521C48.239 11.713 49.3494 11.9259 50.5055 12.1541C50.7337 12.2149 50.9467 12.2149 51.114 12.2606C53.1067 12.6409 55.0994 13.2037 56.9857 13.9186C57.8984 15.0747 58.6742 16.2917 59.2826 17.1739ZM19.3369 63.828L18.3938 63.2804C17.8462 62.7328 17.2377 62.1699 16.8422 61.7288C14.5148 59.2341 13.4652 56.7546 12.6438 54.4272L12.583 54.2599C12.1418 53.043 11.7463 51.8869 11.4725 50.67C11.1987 49.5139 11.0922 46.9735 11.0314 45.7566C10.7576 40.7215 11.1987 37.1924 12.6894 32.2182C12.8568 31.6706 13.0697 31.0622 13.2979 30.4537C13.1914 32.3399 13.1914 34.2718 13.3588 36.0364C13.5261 37.5271 14.3019 41.0714 14.3019 41.2387C14.4084 41.5125 16.4011 48.7077 17.6789 51.0198C18.9566 53.3472 21.9381 56.4352 26.532 60.1468C28.4183 61.6375 30.6848 63.0826 33.1187 64.2996L33.286 64.4061C34.4421 65.0145 35.659 65.623 36.9976 65.8968C37.4388 66.0033 38.0472 66.125 38.7622 66.2315C36.7694 66.6118 34.6094 66.8399 32.571 66.8399L26.5929 66.3988L19.3369 63.828ZM51.2661 11.3783C51.0379 11.3175 50.825 11.3175 50.6576 11.2718C49.4407 11.0436 48.3303 10.8307 47.1742 10.7698C46.733 10.7698 46.3375 10.709 45.9573 10.709C44.9685 10.6481 44.071 10.6025 43.1279 10.6025C41.6828 10.6025 40.2985 10.8307 38.9751 11.1045C36.6477 11.5456 33.8336 12.0932 30.7913 13.2037C26.9123 14.588 22.2119 18.0714 21.999 18.2387L15.747 23.7606H15.6861L15.6253 23.8214C15.5644 23.8823 15.1842 24.5364 14.743 25.3122C14.9103 24.369 15.1233 23.4868 15.3515 22.711C15.5188 22.1025 15.7318 21.5549 16.0208 20.9921L16.0816 20.8247C16.249 20.4901 16.4163 20.1554 16.6293 19.836C16.7357 19.6078 16.9031 19.3948 17.0095 19.1667C18.6676 16.0179 23.2615 10.5417 23.657 10.1005C25.5889 8.5033 30.4566 4.62434 31.9017 3.68122C33.1795 3.51389 34.2747 3.45304 34.944 3.45304C35.0049 3.45304 35.0049 3.45304 35.0505 3.45304C37.3779 3.51389 44.9533 4.94378 45.7291 5.11111C46.444 5.55225 53.8065 9.97883 56.073 12.6257C54.4758 12.0932 52.8633 11.713 51.2661 11.3783ZM3.16697 48.5707C2.49766 45.6349 1.06777 36.5231 0.946075 35.6409L1.99568 28.9477L4.99237 21.0985C5.15969 20.7639 7.09157 17.0066 7.48707 16.3525C7.92821 15.6832 10.9705 11.7586 12.2483 10.6025C14.743 8.22949 19.2152 6.34325 21.0406 5.6283C22.5314 5.08069 26.6841 4.30489 30.1676 3.80291C27.6729 5.68915 23.3072 9.21825 23.079 9.38558H23.0181V9.44642C22.79 9.6746 18.0439 15.3637 16.2642 18.7255C16.1577 18.9537 16.036 19.1058 15.8839 19.334C15.6557 19.6686 15.4427 20.0489 15.2754 20.4444L15.2146 20.6118C14.9864 21.1594 14.7126 21.7678 14.5453 22.4372C14.165 23.7606 13.8303 25.5251 13.6021 27.4114C13.4348 27.6852 13.3283 27.959 13.2675 28.1872C12.8263 29.3432 12.3244 30.7275 11.9441 31.9444C10.3925 37.0251 9.95135 40.6151 10.2252 45.7566C10.286 47.08 10.4533 49.5747 10.7271 50.7917C11.001 52.0086 11.4421 53.2864 11.8376 54.4424L11.8984 54.6098C12.6742 56.8155 13.663 59.2037 15.7774 61.6223L12.7351 59.8578C10.1491 57.5912 3.7298 51.0046 3.16697 48.5707ZM74.6768 53.2711C74.3421 54.4881 74.0683 55.4768 73.9618 56.0397C73.8554 56.5416 71.8626 60.5119 70.5849 63.0066C70.1437 63.5086 65.4433 68.5893 62.8878 69.9735C62.3402 70.2473 61.8382 70.5211 61.397 70.8102C59.4652 71.8598 57.9592 72.6964 55.8144 73.3049C55.3124 73.4114 54.8256 73.5787 54.3236 73.746C51.9963 74.4153 49.5624 75.0694 47.4632 75.2367C47.3567 75.2367 47.1894 75.2367 46.9612 75.2367C43.7516 75.2367 35.6134 73.8525 34.6246 73.4722C33.5142 73.0919 30.3653 71.7533 28.8746 71.0992L28.4943 70.9318L20.4169 65.1819L26.456 67.3419L32.6015 67.8439H32.6623C35.4917 67.8439 38.4123 67.4636 41.0135 66.7334C44.5578 67.2811 48.817 67.8439 49.0452 67.8895H49.1061H49.1669C49.4407 67.8287 56.1947 66.6726 58.7959 65.3948C64.1047 62.7936 68.0445 59.873 71.0868 56.2222C71.8018 55.3856 72.6384 54.336 73.4599 53.2864C74.2357 52.2976 74.7376 51.1872 75.2853 50.0311L75.3917 49.8029C75.5591 49.4682 75.7264 49.0879 75.8937 48.6924C75.7264 49.5139 75.1788 51.6131 74.6768 53.2711ZM79.2707 35.3062C79.2099 36.4623 78.8904 37.5727 78.6014 38.6832C78.4341 39.2308 78.3276 39.7936 78.2211 40.3413C78.1603 40.6151 78.1146 40.8889 78.1146 41.117C78.0538 41.4517 78.0538 41.7864 77.9473 42.1058C77.8408 42.4861 77.6126 42.8816 77.4453 43.3227C77.3388 43.5509 77.278 43.703 77.1715 43.9312C77.1106 44.0377 77.065 44.1594 77.065 44.2659C77.065 41.7255 76.8977 39.6719 76.8977 39.6263V39.5655C76.8977 39.5046 75.9546 34.4848 74.2965 30.4993C73.7489 29.1151 71.9235 25.1905 71.8626 25.0231V24.9623V24.9014C71.7562 24.7341 69.155 20.916 67.8772 19.5926C66.5994 18.3148 65.276 17.2652 63.7244 16.2764C61.8382 15.0595 59.7998 14.0099 57.6398 13.1885C57.366 12.8082 57.0922 12.4735 56.8031 12.1389C54.2628 9.20304 46.3984 4.56349 46.0637 4.35053L46.0029 4.28968H45.942C45.6074 4.22883 37.5909 2.63161 35.0353 2.57077C34.9745 2.57077 34.9745 2.57077 34.9288 2.57077C34.8224 2.57077 34.655 2.57077 34.5485 2.57077C35.0505 2.46428 35.5373 2.29696 36.0393 2.19047C37.028 1.9623 38.032 1.68849 39.0208 1.35383C39.7965 1.08003 42.8997 0.806216 46.1094 0.806216C46.8852 0.806216 47.6001 0.806216 48.2086 0.867063C51.3117 1.03439 55.6775 1.74934 56.4533 1.97751C58.7198 2.64682 60.3322 3.40741 62.4923 4.68518C65.8084 6.67791 68.1966 8.54894 70.022 10.5417C71.8474 12.5344 73.7793 14.6944 75.1636 17.1131C75.3309 17.3413 76.6087 20.3227 77.1563 21.5853C77.3845 22.1329 77.5366 22.4676 77.5974 22.5741C77.9777 23.4563 78.3124 24.4603 78.5405 25.5555C78.9817 27.8221 79.2555 30.3016 79.3772 32.6898C79.3772 32.8571 79.3772 33.0245 79.3772 33.2374C79.2707 33.8763 79.3163 34.6521 79.2707 35.3062Z" fill="white"/>
</g>
<defs>
<clipPath id="clip0">
<rect width="80" height="80" fill="white" transform="translate(0.109436)"/>
</clipPath>
</defs>
</svg>
