<svg width="123" height="80" viewBox="0 0 123 80" fill="none" xmlns="http://www.w3.org/2000/svg">
<g clip-path="url(#clip0)">
<path d="M28.3294 41.3419C28.7418 41.1357 29.196 40.8853 29.6084 40.6814C29.7735 40.5985 30.3511 40.3923 30.434 40.2249C30.455 40.0734 30.455 39.9198 30.434 39.7683V23.9179C30.434 23.8768 30.4751 23.5877 30.434 23.5466C30.3929 23.5055 30.0627 23.5466 30.0216 23.5466H29.1138C28.7836 23.5466 28.8247 23.5877 28.6185 23.8357C27.834 24.8683 27.0503 25.9001 26.2658 26.9737C25.8945 27.469 25.5231 27.9233 25.1929 28.4194C24.9456 28.7496 24.9456 28.7907 24.4913 28.7907L24.6154 26.0659C24.6565 25.4055 24.6565 24.745 24.6976 24.0876C24.6976 23.8395 24.7386 23.5922 24.7386 23.3442C24.7386 23.2612 24.6976 23.0139 24.7386 22.9729C24.8208 22.8488 25.5642 22.9318 25.7704 22.9318H41.2069C41.3851 22.9111 41.5651 22.9111 41.7433 22.9318C41.8255 22.9729 41.7844 23.2209 41.7844 23.3449C41.8255 23.8814 41.8255 24.4597 41.8666 24.9969C41.9077 26.1945 41.9488 27.3503 42.0317 28.548V28.7961C41.8255 28.7961 41.6604 28.8372 41.4953 28.7131C41.3342 28.5509 41.1948 28.3686 41.0806 28.1706C40.5875 27.5101 40.0914 26.8078 39.5588 26.1474L38.0727 24.169C37.9906 24.045 37.8665 23.7558 37.7014 23.6737C37.5774 23.5907 37.3301 23.6326 37.165 23.6326H36.5045C36.34 23.6119 36.1736 23.6119 36.0092 23.6326C35.9681 23.6737 36.0092 23.6737 35.9681 23.7566C35.9268 24.1133 35.9268 24.4735 35.9681 24.8302V39.1946C35.9269 39.523 35.9269 39.8553 35.9681 40.1838C36.0503 40.4729 36.7107 40.6791 36.9999 40.8031C37.3639 40.9404 37.7102 41.1205 38.0316 41.3396C38.0861 41.4321 38.1215 41.5345 38.1356 41.6409C38.1497 41.7473 38.1423 41.8555 38.1138 41.959C38.0727 42 37.8665 41.959 37.8247 41.959H28.7418C28.6596 41.959 28.3704 42 28.3294 41.959C28.3087 41.753 28.3087 41.5455 28.3294 41.3396V41.3419ZM43.6418 40.5985V23.0923C43.6831 22.8047 43.6831 22.5126 43.6418 22.2249C43.5596 21.9357 43.0643 21.8947 42.7751 21.7683C42.61 21.7295 42.0698 21.6055 41.9937 21.4374V21.1102H42.1177C42.3468 21.0453 42.5818 21.0038 42.8193 20.9861C43.1906 20.9032 43.5619 20.8621 43.8921 20.7799C44.7147 20.6148 45.5813 20.4482 46.4069 20.3257C46.9023 20.2427 47.3961 20.1195 47.893 20.0365C48.017 20.0365 48.5123 19.9536 48.5534 20.0365C48.5945 20.0776 48.5534 20.2427 48.5534 20.2846V28.8311C49.4022 28.0181 50.4338 27.421 51.5615 27.0899C52.6891 26.7589 53.8798 26.7036 55.0333 26.9288C56.9356 27.3853 57.5511 29.1583 57.5511 30.9753C57.5922 33.2877 57.5511 35.5582 57.5511 37.8706V39.7287C57.5099 40.0302 57.5099 40.3358 57.5511 40.6373C57.5922 40.7202 57.7573 40.7613 57.8403 40.8435C58.1294 41.0086 58.4597 41.1737 58.748 41.3388C58.7891 41.3799 58.9132 41.4218 58.9132 41.4628C58.9549 41.6122 58.9549 41.7701 58.9132 41.9194C58.8721 42.0023 58.8721 41.9605 58.748 41.9605C58.295 42.0018 57.8391 42.0018 57.386 41.9605H51.4426C51.4015 41.9605 51.1953 42.0016 51.1534 41.9605C51.1122 41.784 51.1122 41.6005 51.1534 41.424C51.2775 41.2589 51.7728 41.0938 51.9379 40.9675C52.062 40.8846 52.4333 40.7613 52.5155 40.6373C52.5976 40.5132 52.5155 40.059 52.5155 39.9357V38.245C52.5155 35.8504 52.5566 33.414 52.5155 31.0164C52.5644 30.6554 52.5133 30.2879 52.3677 29.9539C52.2222 29.6199 51.9877 29.3323 51.6899 29.1225C51.2896 28.9376 50.8504 28.8525 50.41 28.8744C50.0874 28.8856 49.7679 28.9412 49.4604 29.0396C49.1407 29.1241 48.8444 29.2802 48.5938 29.4961C48.4697 29.6612 48.5527 29.9093 48.5527 30.1155V39.8551C48.5113 40.1149 48.5113 40.3797 48.5527 40.6395C48.6392 40.7403 48.7544 40.8123 48.8829 40.8457C49.1721 41.0109 49.5434 41.176 49.8325 41.3411C49.8736 41.3822 49.9565 41.3822 49.9565 41.424C49.9983 41.5734 49.9983 41.7313 49.9565 41.8806C49.9155 41.9217 49.8744 41.9217 49.7914 41.9217C49.3349 41.9628 48.8418 41.9217 48.3883 41.9217H42.4449C42.4038 41.9217 42.1976 41.9628 42.1557 41.9217C42.1297 41.742 42.1437 41.5588 42.1968 41.3852C42.4203 41.2081 42.6712 41.0686 42.9395 40.9721C43.1824 40.8649 43.4172 40.74 43.6418 40.5985V40.5985ZM63.2465 34.9008C63.3287 36.7178 63.907 38.7403 65.5581 39.7318C66.4562 40.2102 67.4759 40.4115 68.4884 40.3101C69.6313 40.1085 70.7245 39.6879 71.7078 39.0713C71.7284 39.2773 71.7284 39.4848 71.7078 39.6907C71.5932 39.8736 71.4545 40.0403 71.2954 40.186C71.1125 40.375 70.9198 40.5541 70.7178 40.7225C70.0291 41.2826 69.2464 41.716 68.4062 42.0023C66.7834 42.5044 65.051 42.5332 63.4124 42.0853C62.1402 41.7891 60.9885 41.1123 60.1108 40.145C59.2606 39.1189 58.717 37.8738 58.5426 36.5527C58.086 33.7039 58.6248 30.4419 60.9775 28.5427C62.0915 27.7393 63.3889 27.2277 64.7513 27.0545C66.1138 26.8813 67.498 27.0521 68.7775 27.5512C71.7489 28.7489 72.2442 32.1342 72.2442 34.9419H64.3643C63.9937 34.9076 63.6216 34.8939 63.2495 34.9008H63.2465ZM63.1643 34.1992C63.9899 34.1582 64.8155 34.1163 65.6822 34.0341C66.1775 33.993 66.7139 33.993 67.2093 33.9512C67.3345 33.958 67.4599 33.9441 67.5806 33.9101C67.7046 33.8272 67.6217 33.0016 67.6217 32.8365C67.5806 31.3504 67.5395 29.5334 66.6721 28.2535C66.0527 27.345 65.1039 27.5101 64.5256 28.3365C63.3287 29.9458 63.1636 32.3411 63.1636 34.1985L63.1643 34.1992ZM0.676558 49.269C0.597778 46.932 1.19999 44.6226 2.4099 42.6217C3.69027 40.766 5.59446 39.4318 7.7758 38.8621C10.452 38.1878 13.2466 38.1313 15.9479 38.697C16.5254 38.821 17.1037 38.945 17.6402 39.1101C17.7223 39.1512 18.0967 39.2342 18.1355 39.3163V39.4404C18.211 39.9737 18.2248 40.5139 18.1766 41.0504C18.2177 42.3303 18.2177 43.652 18.2588 44.931C18.0668 44.9517 17.8732 44.9517 17.6813 44.931C17.5991 44.89 17.5161 44.683 17.475 44.6008C17.1448 44.1055 16.8146 43.6116 16.5254 43.0729C15.8239 41.9582 15.0797 40.8435 14.3789 39.7249C14.0076 39.1056 12.9758 39.1056 12.3154 39.1056C11.582 39.0778 10.8547 39.249 10.2107 39.6009C8.80758 40.4683 8.14712 42.1606 7.7758 43.6885C7.28808 46.148 7.14925 48.6639 7.36339 51.1621C7.39075 53.0918 7.73946 55.0035 8.39517 56.8187C8.5834 57.368 8.90401 57.8624 9.32867 58.2584C9.75334 58.6544 10.269 58.9398 10.8301 59.0892C11.2106 59.1655 11.6009 59.1793 11.9859 59.1303C12.2332 59.0892 13.1006 59.0474 13.2239 58.8001C13.2445 58.6771 13.2445 58.5517 13.2239 58.4287V51.6567C13.2239 51.3675 13.3061 51.2435 13.0588 51.0784C12.7473 50.915 12.4444 50.736 12.151 50.542C11.9448 50.4179 11.5316 50.2939 11.4084 50.1288C11.3611 50.0333 11.3332 49.9295 11.3262 49.8232C11.3191 49.7169 11.3331 49.6103 11.3673 49.5094C11.4084 49.4265 11.4084 49.4683 11.5324 49.4683C11.944 49.427 12.3587 49.427 12.7704 49.4683H19.1665C19.579 49.4683 20.0332 49.4272 20.4456 49.4683H20.6123C20.6536 49.7003 20.6536 49.9379 20.6123 50.1699C20.4122 50.3263 20.1895 50.4515 19.9518 50.5412C19.6404 50.7046 19.3374 50.8836 19.044 51.0776C18.7138 51.2428 18.7549 51.2428 18.7549 51.6141V58.3443C18.7755 58.4672 18.7755 58.5927 18.7549 58.7156C18.6727 58.9218 17.8053 59.0458 17.558 59.1288C16.8393 59.3375 16.1088 59.5029 15.3704 59.6241C13.9379 59.8644 12.485 59.9612 11.0332 59.9133C8.67045 59.9317 6.35621 59.2427 4.38825 57.9349C2.7637 56.7003 1.62515 54.9336 1.17191 52.9441C0.819827 51.7516 0.652767 50.5121 0.676558 49.269V49.269ZM19.7037 45.5116C19.7037 45.4287 19.6626 45.0984 19.7037 45.0551C19.7448 45.0117 19.7859 45.0551 19.8278 45.014C20.1067 44.9156 20.3989 44.8599 20.6944 44.8489C21.644 44.6838 22.5967 44.5186 23.5859 44.3535C24.3285 44.2295 25.0719 44.0644 25.7735 43.9822C25.9931 43.9339 26.2219 43.9482 26.4339 44.0233C26.6401 44.0644 26.558 44.0233 26.5991 44.1884C26.6403 44.7106 26.6403 45.2352 26.5991 45.7574V54.3891C26.5991 55.4216 26.3099 57.3209 27.3006 57.9402C27.8434 58.2351 28.4791 58.309 29.075 58.1464C29.5316 58.0635 30.396 57.7333 30.5611 57.2379C30.5817 57.101 30.5817 56.9617 30.5611 56.8248V46.7093C30.5817 46.5723 30.5817 46.4331 30.5611 46.2961C30.3575 46.1656 30.1346 46.068 29.9006 46.007C29.6533 45.924 29.4441 45.8008 29.1991 45.7178C29.1169 45.6767 28.8277 45.6349 28.7867 45.5527C28.7449 45.4034 28.7449 45.2455 28.7867 45.0962C28.8277 45.0551 28.8277 45.0962 28.8688 45.0551C29.1224 44.9736 29.387 44.9318 29.6533 44.931C31.3456 44.6419 33.0774 44.2706 34.8123 44.0225C35.0167 43.9812 35.2272 43.9812 35.4316 44.0225C35.6378 44.0636 35.5557 43.9814 35.5968 44.1876C35.6381 44.6687 35.6381 45.1523 35.5968 45.6334V57.5271C35.576 57.6915 35.576 57.8579 35.5968 58.0224C35.6378 58.1464 35.5968 58.1054 35.803 58.1875C36.2154 58.3526 36.6696 58.5589 37.082 58.724C37.2061 58.7651 37.2472 58.7651 37.2882 58.848C37.3293 58.9309 37.3293 59.2193 37.2882 59.2193C37.2061 59.3023 36.7929 59.2604 36.7107 59.3023C35.803 59.4263 34.8944 59.5085 33.9456 59.6325C33.12 59.7154 32.2944 59.8387 31.5107 59.9216C31.3482 59.9629 31.1779 59.9629 31.0153 59.9216C30.8901 59.9308 30.7642 59.9169 30.644 59.8805C30.6234 59.7161 30.6234 59.5497 30.644 59.3852V58.6836C30.644 58.5596 30.7262 58.2271 30.644 58.1054C30.5618 57.9836 30.3967 58.1464 30.2727 58.2294C29.5068 58.9122 28.5977 59.415 27.6122 59.7008C26.6267 59.9867 25.5898 60.0483 24.5773 59.8813C24.0065 59.7822 23.4682 59.5464 23.0083 59.1941C22.5483 58.8418 22.1805 58.3834 21.9362 57.8581C21.6025 57.0762 21.4466 56.23 21.4797 55.3806V46.7062C21.5003 46.5693 21.5003 46.43 21.4797 46.2931C21.3975 46.169 20.9022 46.045 20.7781 45.9628C20.3634 45.8008 20.0332 45.6767 19.7037 45.5116V45.5116ZM58.624 43.9426C58.7062 43.9426 59.0806 43.9426 59.1194 44.0256C59.1604 44.0667 59.1194 44.3558 59.1194 44.3969V48.0302C59.0985 48.1817 59.0985 48.3353 59.1194 48.4868V48.5697C59.2845 48.7348 59.3256 48.1984 59.3666 48.1565C59.738 46.6286 60.4395 44.8534 62.0078 44.2341C62.286 44.1266 62.5776 44.0572 62.8744 44.0279C63.1217 44.0279 63.824 43.9449 63.9473 44.1519C63.9679 44.2748 63.9679 44.4003 63.9473 44.5232V48.7348C62.9369 48.5417 61.8978 48.5556 60.893 48.7759C60.4486 48.8508 60.0175 48.9899 59.6132 49.1891C59.407 49.272 59.3659 49.2302 59.324 49.3953C59.3034 49.6012 59.3034 49.8087 59.324 50.0147V57.9813C59.324 58.0643 59.283 58.1875 59.324 58.2705C59.4062 58.3945 59.6954 58.4767 59.8194 58.5185C60.0256 58.6426 60.2759 58.7666 60.4799 58.8898C60.562 58.9309 60.6861 58.9728 60.7271 59.055C60.7684 59.2455 60.7684 59.4427 60.7271 59.6333C60.6861 59.6743 60.438 59.6333 60.3558 59.6333H53.5077C53.2619 59.6746 53.0109 59.6746 52.765 59.6333H52.641C52.6204 59.455 52.6204 59.275 52.641 59.0968C52.7232 58.8488 53.2604 58.6836 53.5077 58.5604C53.6728 58.4774 54.003 58.3542 54.0852 58.1891C54.1059 58.0521 54.1059 57.9128 54.0852 57.7759V46.2961C54.0852 46.255 54.1263 46.0481 54.0852 46.007C53.9826 45.9553 53.8698 45.9269 53.755 45.924C53.5131 45.8362 53.2648 45.7673 53.0123 45.7178C52.765 45.6349 52.1457 45.5938 52.3519 45.1814C52.393 45.0574 52.5581 45.0984 52.7232 45.0574C54.5395 44.7271 56.3139 44.3969 58.1302 44.0682C58.2899 44.0075 58.4561 43.9659 58.6255 43.9442L58.624 43.9426ZM74.1837 44.314V40.062C74.2044 39.8975 74.2044 39.7311 74.1837 39.5667C74.1427 39.4837 73.9775 39.4426 73.8535 39.4016C73.5233 39.2775 73.193 39.1535 72.8217 39.0302C72.5744 38.9473 72.4504 38.9891 72.4504 38.7C72.4504 38.4519 72.4093 38.5349 72.6155 38.4938C73.0897 38.3711 73.5733 38.2881 74.0612 38.2457C75.4233 37.9977 76.7442 37.7504 78.1062 37.5023C78.3898 37.4328 78.6819 37.4039 78.9736 37.4164C79.3039 37.4574 79.345 37.3753 79.345 37.6644C79.3861 38.3249 79.345 39.0272 79.345 39.6877V57.7744C79.345 57.9395 79.3039 57.9395 79.4271 58.0224C79.7154 58.1686 80.0201 58.2794 80.3349 58.3526C80.5 58.3937 80.9543 58.4767 81.0365 58.6007C81.0777 58.7771 81.0777 58.9607 81.0365 59.1371C80.9298 59.1711 80.8179 59.185 80.7062 59.1782C80.1287 59.2612 79.5915 59.3433 79.014 59.3844C77.7341 59.5496 76.455 59.7147 75.1334 59.8798C74.9271 59.9209 74.4318 60.0038 74.3489 59.8387C74.3076 59.551 74.3076 59.2589 74.3489 58.9713C74.3489 58.8472 74.431 58.3108 74.3489 58.2279C74.2667 58.1449 73.3597 58.9713 73.2341 59.0534C72.7397 59.3835 72.1967 59.6343 71.6248 59.7968C70.6923 60.0374 69.7158 60.0515 68.7768 59.8379C64.8147 58.9294 63.9891 54.2225 64.3194 50.7961C64.4127 48.9711 65.1084 47.2285 66.2977 45.8411C67.4561 44.6837 69 43.993 70.6349 43.9008C71.8341 43.7441 73.0534 43.886 74.1845 44.314H74.1837ZM74.1837 57.4852V45.4294C74.1837 45.1814 74.1427 45.1403 73.8535 44.9729C73.5651 44.7984 73.2419 44.6895 72.9067 44.6539C72.5715 44.6182 72.2326 44.6568 71.914 44.7667C70.9644 45.138 70.5109 46.2527 70.2628 47.1613C69.8289 48.8452 69.6618 50.5868 69.7675 52.3225C69.8085 53.8085 69.8496 55.6256 70.6752 56.9465C70.86 57.2243 71.1008 57.4605 71.382 57.6401C71.6633 57.8196 71.9789 57.9385 72.3087 57.9892C72.6385 58.0399 72.9753 58.0213 73.2975 57.9345C73.6197 57.8477 73.9202 57.6947 74.1799 57.4852H74.1837ZM87.845 43.9411C88.0512 43.9822 88.3016 43.9 88.3815 44.1062C88.4021 44.2844 88.4021 44.4644 88.3815 44.6427V57.5682C88.3608 57.7604 88.3608 57.9542 88.3815 58.1464C88.4226 58.3116 88.5877 58.3526 88.7528 58.4356C89.0001 58.5596 89.2093 58.6836 89.4543 58.8069C89.5365 58.848 89.7846 58.9309 89.8257 59.055C89.8463 59.2472 89.8463 59.441 89.8257 59.6333H89.7024C89.4139 59.6539 89.1242 59.6539 88.8357 59.6333H82.5621C82.397 59.6333 81.9427 59.7162 81.8194 59.6333C81.7715 59.538 81.7432 59.4341 81.7361 59.3277C81.7291 59.2213 81.7434 59.1146 81.7783 59.0139C81.8605 58.8898 82.1497 58.8077 82.2737 58.7658C82.521 58.6418 82.769 58.4767 83.0163 58.3526C83.2225 58.2286 83.1814 58.2697 83.1814 58.1046C83.2227 57.4585 83.2227 56.8104 83.1814 56.1643V46.9573C83.2021 46.7514 83.2021 46.5439 83.1814 46.338C83.1404 46.1728 82.9342 46.1728 82.769 46.0899C82.4799 45.9659 82.2326 45.8837 81.9435 45.7597C81.8613 45.7186 81.531 45.6767 81.4481 45.5535C81.4068 45.3909 81.4068 45.2207 81.4481 45.0581C81.4892 45.017 81.5721 45.0581 81.6132 45.017C81.9659 44.9246 82.3243 44.8557 82.6861 44.8108C83.2225 44.7279 83.7179 44.6046 84.2543 44.5217C85.2861 44.3566 86.2768 44.1504 87.3086 43.9852C87.4881 44.0145 87.672 44.0004 87.845 43.9442V43.9411ZM88.4226 40.1016C88.3804 40.6581 88.1737 41.1895 87.8288 41.6283C87.484 42.0671 87.0164 42.3936 86.4857 42.5661C85.9549 42.7386 85.3848 42.7495 84.8478 42.5974C84.3109 42.4453 83.8312 42.137 83.4698 41.7117C83.1296 41.2725 82.9349 40.7381 82.9126 40.183C82.8904 39.628 83.0418 39.0798 83.3458 38.6148C83.6647 38.155 84.1153 37.8025 84.6382 37.6035C85.1612 37.4046 85.7322 37.3685 86.276 37.5001C86.8802 37.6177 87.4246 37.9417 87.8162 38.4166C88.2077 38.8915 88.4221 39.4876 88.4226 40.1031V40.1016ZM106.5 58.2271V46.3791C106.5 46.338 106.541 46.131 106.5 46.0899C106.459 46.007 106.211 45.9659 106.129 45.9659L105.386 45.7178C105.262 45.6767 104.93 45.6349 104.85 45.5116C104.768 45.4287 104.809 45.2225 104.809 45.0984C104.809 44.8504 104.891 44.8922 105.139 44.8504L107.863 44.355L110.587 43.8597C110.735 43.812 110.888 43.7841 111.043 43.7768C111.237 43.7699 111.431 43.7837 111.621 43.8178C111.662 43.8589 111.621 44.107 111.621 44.1892V44.9737C111.621 45.0977 111.539 45.469 111.621 45.593C111.704 45.7582 111.868 45.593 111.992 45.469C112.352 45.1832 112.739 44.9342 113.148 44.7256C114.653 43.8806 116.391 43.5474 118.101 43.776C118.657 43.8251 119.187 44.0296 119.633 44.3659C120.078 44.7023 120.42 45.157 120.619 45.6783C120.872 46.4639 120.984 47.2884 120.949 48.1132V57.5271C120.928 57.733 120.928 57.9405 120.949 58.1464C120.99 58.3116 121.114 58.3526 121.32 58.4356C121.526 58.5596 121.777 58.6836 121.981 58.8069C122.063 58.848 122.352 58.9309 122.393 59.055C122.435 59.2314 122.435 59.415 122.393 59.5914C122.352 59.6743 122.434 59.5914 122.31 59.6325C122.064 59.6738 121.813 59.6738 121.568 59.6325H115.665C115.418 59.6325 114.468 59.7565 114.344 59.5914C114.303 59.4009 114.303 59.2037 114.344 59.0131C114.385 58.9302 114.633 58.848 114.716 58.8069C114.963 58.6829 115.172 58.5589 115.417 58.4356C115.499 58.3945 115.747 58.3116 115.788 58.2294C115.83 58.1472 115.788 57.9813 115.788 57.8991V48.5256C115.874 47.8435 115.744 47.1519 115.417 46.5472C115.238 46.3286 115.011 46.1549 114.753 46.0402C114.495 45.9255 114.213 45.8729 113.931 45.8867C113.499 45.8779 113.067 45.9335 112.651 46.0519C112.445 46.1348 111.826 46.2999 111.702 46.5472C111.661 46.6301 111.702 46.7953 111.702 46.8774V57.5682C111.681 57.7464 111.681 57.9264 111.702 58.1046C111.743 58.2697 111.991 58.3108 112.114 58.3937C112.32 58.5178 112.571 58.6418 112.775 58.7651C112.876 58.811 112.973 58.8663 113.064 58.9302C113.105 59.1207 113.105 59.3179 113.064 59.5085C113.064 59.5495 113.023 59.5085 112.981 59.5085C112.735 59.5497 112.484 59.5497 112.238 59.5085H105.301C105.095 59.5085 105.054 59.5496 105.012 59.4255C104.971 59.2491 104.971 59.0655 105.012 58.8891C105.053 58.8061 105.301 58.724 105.383 58.6829C105.783 58.6115 106.164 58.4568 106.5 58.2286V58.2271ZM97.7497 50.6302C97.7497 49.5566 97.7908 48.4419 97.7086 47.3271C97.5846 46.1295 97.2521 44.8085 95.8924 44.5605C95.4799 44.4775 94.7365 44.3543 94.4466 44.6845C94.176 45.0115 93.9279 45.3565 93.704 45.7171L91.5993 48.5659C91.4753 48.731 91.352 49.0612 91.1869 49.1442C91.0376 49.1861 90.8797 49.1861 90.7304 49.1442C90.6893 49.1031 90.7304 48.8139 90.7304 48.731V45.383C90.7095 45.2316 90.7095 45.0779 90.7304 44.9265C90.8126 44.7203 91.7196 44.5963 91.9273 44.5133C93.0913 44.2171 94.2791 44.0236 95.4769 43.935C97.2247 43.7174 98.9992 43.9445 100.636 44.5955C101.227 44.8553 101.742 45.2618 102.133 45.7764C102.523 46.2911 102.775 46.8969 102.866 47.5364C102.955 48.2206 102.983 48.9115 102.948 49.6007V57.8573C102.948 57.9813 102.866 58.3138 102.948 58.3937C103.038 58.4403 103.136 58.4685 103.237 58.4767C103.568 58.5596 103.857 58.6418 104.187 58.7247C104.393 58.7658 104.434 58.7658 104.434 58.9728C104.434 59.1798 104.475 59.179 104.228 59.2619C103.946 59.3899 103.657 59.5002 103.361 59.5922C101.834 60.0487 99.4405 60.1704 98.3257 58.7666C98.2436 58.6426 97.9955 58.1061 97.8692 58.065C97.7041 58.0239 97.2087 58.6844 97.0436 58.8084C96.3609 59.3745 95.5301 59.7329 94.6498 59.841C93.0405 60.0472 91.3064 59.7169 90.3126 58.3131C89.8996 57.6687 89.65 56.9333 89.5852 56.1707C89.5205 55.408 89.6428 54.6411 89.9413 53.9364C91.056 51.4178 94.3546 51.1697 96.7514 50.7573C97.0406 50.7573 97.3708 50.6744 97.7406 50.6333L97.7497 50.6302ZM97.7497 57.4845V51.3751C96.5117 51.4581 95.2319 51.5403 94.7784 52.903C94.4839 53.8497 94.4133 54.8517 94.5722 55.8302C94.5752 56.1904 94.654 56.5458 94.8033 56.8735C94.9526 57.2012 95.1691 57.4939 95.4389 57.7325C95.7956 57.9582 96.2182 58.0565 96.6379 58.0115C97.0576 57.9665 97.4498 57.7807 97.7505 57.4845H97.7497ZM45.4984 50.6302C45.4984 49.5566 45.5395 48.4419 45.4573 47.3271C45.3333 46.1295 45.0008 44.8085 43.641 44.5605C43.2286 44.4775 42.4852 44.3543 42.1953 44.6845C41.9247 45.0115 41.6765 45.3565 41.4527 45.7171L39.348 48.5659C39.224 48.731 39.1007 49.0612 38.9356 49.1442C38.7863 49.1861 38.6284 49.1861 38.4791 49.1442C38.438 49.1031 38.4791 48.8139 38.4791 48.731V45.4294C38.4582 45.278 38.4582 45.1244 38.4791 44.9729C38.5612 44.7667 39.4287 44.6427 39.676 44.5597C40.8267 44.2668 42.0006 44.0733 43.1845 43.9814C44.9323 43.7638 46.7068 43.9909 48.3434 44.6419C48.9333 44.9011 49.4474 45.3063 49.8374 45.8192C50.2273 46.3322 50.4801 46.936 50.5721 47.5737C50.6613 48.2579 50.6888 48.9488 50.6543 49.638V57.8984C50.6543 58.0224 50.5721 58.3549 50.6543 58.4348C50.7442 58.4814 50.8425 58.5096 50.9434 58.5178C51.2737 58.6007 51.5628 58.6829 51.893 58.7658C52.0993 58.8069 52.1403 58.8069 52.1403 59.0139C52.1403 59.2208 52.1814 59.2201 51.9341 59.303C51.6524 59.431 51.3629 59.5413 51.0675 59.6333C49.5403 60.0898 47.1465 60.2115 46.0318 58.8077C45.9496 58.6836 45.7016 58.1472 45.5753 58.1061C45.4101 58.065 44.9148 58.7255 44.7908 58.8495C44.108 59.4156 43.2772 59.774 42.397 59.8821C40.7876 60.0883 39.0535 59.758 38.0598 58.3542C37.6468 57.7098 37.3971 56.9744 37.3324 56.2118C37.2677 55.4491 37.3899 54.6822 37.6885 53.9774C38.8032 51.4589 42.1017 51.2108 44.4605 50.7984C44.7908 50.7573 45.121 50.6744 45.4923 50.6333L45.4984 50.6302ZM45.4984 57.4845V51.3751C44.2604 51.4581 42.9806 51.5403 42.5271 52.903C42.2326 53.8497 42.162 54.8517 42.3209 55.8302C42.3239 56.1904 42.4026 56.5458 42.552 56.8735C42.7013 57.2012 42.9178 57.4939 43.1875 57.7325C43.5442 57.9583 43.9667 58.0568 44.3865 58.0119C44.8062 57.967 45.1984 57.7813 45.4992 57.4852L45.4984 57.4845Z" fill="white"/>
</g>
<defs>
<clipPath id="clip0">
<rect width="121.745" height="80" fill="white" transform="translate(0.676575)"/>
</clipPath>
</defs>
</svg>
