<svg width="164" height="80" viewBox="0 0 164 80" fill="none" xmlns="http://www.w3.org/2000/svg">
<g clip-path="url(#clip0)">
<path d="M5.62274 34.5078H0V29.261H17.0432V34.5078H11.4205V50.74H5.62074L5.62274 34.5078Z" fill="white"/>
<path d="M17.7102 29.26H23.2169V35.0597C23.9709 34.1898 25.1598 33.7598 27.7387 33.7598C31.7096 33.7598 32.5225 36.3977 32.5225 39.8175V50.738H26.9568V41.2314C26.9568 39.7235 26.7568 39.0575 25.3628 39.0575C23.5359 39.0575 23.2459 39.7245 23.2459 41.2894V50.739H17.7102V29.26Z" fill="white"/>
<path d="M40.6661 50.942C43.0353 51.0428 45.3906 50.5339 47.5068 49.4641L45.4499 45.2903C44.0493 45.9606 42.5093 46.2883 40.9571 46.2462C39.2182 46.2462 38.6672 45.8462 38.5222 44.3913H47.5068C47.6228 38.0446 47.8258 33.7548 40.8071 33.7548C34.9814 33.7548 33.1845 36.9436 33.1845 42.3634C33.1845 47.8701 34.5464 50.943 40.6631 50.943L40.6661 50.942ZM40.6921 38.5656C42.4031 38.5656 42.5761 39.2035 42.6351 40.8845H38.4892C38.5762 39.2325 39.0112 38.5656 40.6891 38.5656" fill="white"/>
<path d="M59.0424 51C67.013 51 68.4329 45.7533 68.4329 40.0145C68.4329 34.2468 67.043 29 59.0424 29C51.0417 29 49.6218 34.2468 49.6218 40.0145C49.6218 45.7533 51.0417 51 59.0424 51ZM59.0424 45.9272C55.8825 45.9272 55.4475 43.7533 55.4475 40.2165C55.4475 36.7087 55.8825 34.5348 59.0424 34.5348C62.1722 34.5348 62.6072 36.7087 62.6072 40.2165C62.6072 43.7523 62.1722 45.9272 59.0424 45.9272Z" fill="white"/>
<path d="M69.3038 50.566L73.3036 50.942L74.1736 49.6671C75.2176 50.537 75.7685 50.942 78.8984 50.942C83.9132 50.942 84.7541 47.0302 84.7541 42.3624C84.7541 37.7836 84.1162 33.7538 79.1594 33.7538C77.1015 33.7538 75.6805 34.0138 74.8106 35.2897V29.26H69.3038V50.565V50.566ZM77.1585 46.1892C75.1876 46.1892 74.8396 45.2323 74.8396 42.6244C74.8396 39.9585 75.2746 38.9135 77.1585 38.9135C78.8974 38.9135 79.1584 39.8995 79.1584 42.6244C79.1584 45.3493 78.8094 46.1892 77.1585 46.1892Z" fill="white"/>
<path d="M84.6372 49.4921L86.6671 45.4342C88.2876 46.1734 90.0439 46.5684 91.8248 46.5942C92.7248 46.5942 93.0418 46.2752 93.0418 45.7823C93.0418 45.0583 92.1148 45.0003 89.9419 44.3623C86.8981 43.4923 85.2421 42.5944 85.2421 39.2625C85.2421 35.0297 88.199 33.7558 92.0838 33.7558C93.9996 33.6842 95.9079 34.0302 97.6766 34.7698L95.5897 39.1755C94.399 38.7075 93.1302 38.47 91.8508 38.4756C90.7209 38.4756 90.5179 38.7356 90.5179 39.1995C90.5179 39.8665 91.4459 39.9245 93.1558 40.3885C96.5776 41.3164 98.1996 42.3314 98.1996 45.7512C98.1996 49.4031 95.4997 50.939 91.7938 50.939C89.3239 51.0588 86.8632 50.5607 84.6342 49.4901" fill="white"/>
<path d="M106.114 50.942C108.483 51.043 110.839 50.534 112.955 49.4641L110.898 45.2903C109.497 45.9606 107.957 46.2882 106.405 46.2462C104.666 46.2462 104.115 45.8462 103.97 44.3913H112.955C113.071 38.0446 113.275 33.7548 106.26 33.7548C100.432 33.7548 98.6365 36.9436 98.6365 42.3634C98.6365 47.8701 99.9985 50.943 106.115 50.943L106.114 50.942ZM106.144 38.5656C107.855 38.5656 108.029 39.2035 108.087 40.8845H103.941C104.028 39.2325 104.463 38.5656 106.141 38.5656" fill="white"/>
<path d="M113.913 34.3908L118.319 34.0428L118.783 35.4917C119.596 34.5348 120.726 33.9268 123.45 33.9268V39.1726C119.798 39.1726 119.48 40.3915 119.48 42.3324V50.739H113.914L113.913 34.3908Z" fill="white"/>
<path d="M123.589 34.0728H129.415L131.937 43.8123L134.488 34.0728H139.963L134.89 50.913H128.633L123.589 34.0728Z" fill="white"/>
<path d="M146.487 50.942C148.856 51.043 151.212 50.534 153.328 49.4641L151.271 45.2903C149.87 45.9606 148.331 46.2882 146.778 46.2462C145.039 46.2462 144.488 45.8462 144.343 44.3913H153.328C153.444 38.0446 153.648 33.7548 146.633 33.7548C140.808 33.7548 139.009 36.9436 139.009 42.3634C139.009 47.8701 140.372 50.943 146.487 50.943V50.942ZM146.516 38.5656C148.227 38.5656 148.401 39.2035 148.459 40.8845H144.313C144.4 39.2325 144.835 38.5656 146.513 38.5656" fill="white"/>
<path d="M154.14 34.3908L158.546 34.0428L159.01 35.4917C159.822 34.5348 160.953 33.9268 163.678 33.9268V39.1726C160.026 39.1726 159.707 40.3915 159.707 42.3324V50.739H154.141L154.14 34.3908Z" fill="white"/>
</g>
<defs>
<clipPath id="clip0">
<rect width="163.677" height="80" fill="white"/>
</clipPath>
</defs>
</svg>
