<svg width="119" height="80" viewBox="0 0 119 80" fill="none" xmlns="http://www.w3.org/2000/svg">
<g clip-path="url(#clip0)">
<path d="M109.95 27.1344C110.035 21.6093 108.13 16.2378 104.584 12H113.416C116.313 15.533 118.106 21.5405 118.106 27.1344V27.1543C118.106 32.7585 116.308 38.7756 113.403 42.3064H104.57C108.125 38.0662 110.035 32.6877 109.95 27.155V27.1344Z" fill="white"/>
<path d="M8.48759 12.002H0.343323L11.5201 42.3135H15.8487L17.7565 37.1392L8.48759 12.002Z" fill="white"/>
<path d="M30.3317 12.0015H22.1875L33.3642 42.313H37.6929L39.6007 37.1387L30.3317 12.0015Z" fill="white"/>
<path d="M92.5306 68V12.0022H84.7382V68H92.5306Z" fill="white"/>
<path d="M47.8656 16.4957C47.953 14.9474 48.3092 13.4262 48.9182 12H56.0452C55.6355 12.7559 55.3788 13.5851 55.2898 14.4402C55.2007 15.2954 55.2811 16.1597 55.5263 16.9837C56.1294 18.6554 57.3101 20.0564 58.8554 20.934C60.6749 22.1058 62.7976 22.7579 64.7474 23.6677C66.8143 24.5359 68.7484 25.6916 70.4922 27.1006C71.7116 28.0755 72.7174 29.2908 73.4471 30.671C74.1768 32.0512 74.6148 33.5667 74.734 35.1234C74.7634 35.5186 74.7759 35.9154 74.7759 36.3121C74.828 38.3801 74.3997 40.4319 73.5247 42.3064H66.2084C67.0182 40.9718 67.4287 39.4331 67.3913 37.8725C67.1351 34.0539 62.4694 31.9636 58.5684 30.2295C57.9729 29.9645 57.3907 29.7039 56.8299 29.4441C55.089 28.6742 53.4537 27.6848 51.9639 26.5C50.4669 25.3784 49.3029 23.871 48.5965 22.1389C47.9928 20.51 47.7317 18.7741 47.8296 17.0397C47.8391 16.8586 47.8495 16.6768 47.8649 16.4957" fill="white"/>
</g>
<defs>
<clipPath id="clip0">
<rect width="117.766" height="80" fill="white" transform="translate(0.343323)"/>
</clipPath>
</defs>
</svg>
